<?xml version="1.0" encoding="utf-8"?>
<!-- Generator: Adobe Illustrator 20.1.0, SVG Export Plug-In . SVG Version: 6.00 Build 0)  -->
<svg version="1.1" id="Calque_1" xmlns="http://www.w3.org/2000/svg" xmlns:xlink="http://www.w3.org/1999/xlink" x="0px" y="0px"
	 viewBox="0 0 432 432" style="enable-background:new 0 0 432 432;" xml:space="preserve">
<style type="text/css">
	.st0{fill:#CC7B26;}
	.st1{fill:#D60B52;}
	.st2{fill:#020203;}
</style>
<g>
	<g>
		<g>
			<path d="M306.7,106l-1.3-0.3c-0.6,2.7-1.7,5.4-3.1,8.1c-1.5,2.7-3.2,5.2-5.1,7.6c-2.2,2.8-4.6,5.1-7.3,6.9
				c-0.3-1.5-0.7-2.9-1.1-4.4c-0.4-1.5-0.9-3.3-1.6-5.4c-0.5-2-1.1-4.1-1.6-6.5c-0.5-2.3-0.9-4.6-1.3-6.9c-0.3-2.3-0.5-4.5-0.6-6.6
				c0-2.1,0.2-4,0.6-5.6c0.4-1.6,1.1-2.9,2.1-3.9c1-1,2.4-1.4,4.1-1.4c1,0,1.9,0.3,2.8,0.8c0.9,0.5,1.6,1.2,2.3,2.1
				c0.7,0.9,1.1,1.9,1.4,3.2c0.3,1.2,0.4,2.6,0.2,4.1c-0.2,0.8-0.4,1.8-0.6,2.8c-0.3,1-0.6,2-1,2.9c-0.4,1-0.9,1.9-1.4,2.7
				c-0.5,0.8-1.1,1.5-1.7,2c-0.5,0.4-0.6,0.8-0.4,1.3c0.2,0.5,0.5,0.6,0.9,0.3c0.8-0.5,1.5-1.2,2.1-2.1c0.7-1,1.2-2,1.7-3.1
				c0.5-1.1,0.9-2.2,1.2-3.4c0.3-1.2,0.5-2.2,0.7-3.2c0.5-3.7-0.2-6.6-1.9-8.6c-1.7-2.1-3.7-3.2-6.1-3.3c-2.7-0.1-4.8,0.7-6.4,2.5
				c-1.6,1.7-2.7,4-3.5,6.9c-0.7,2.8-1.1,6-1.2,9.6c0,1.9,0,3.9,0.1,5.8c-0.6,1.5-1.2,2.9-1.8,4.1c-0.9,2-1.9,3.6-2.9,5
				c-1,1.4-2.2,2.6-3.6,3.7c-1.3,1.1-3,2.2-4.9,3.5c0.8-4.5,1.5-8.7,2-12.6c0.5-4,0.8-7.4,1-10.2c0.1-1.1-0.2-1.9-0.9-2.5
				c-0.7-0.6-1.5-0.9-2.3-1c-0.8,0-1.6,0.2-2.4,0.7c-0.7,0.5-1.1,1.4-1.2,2.7v0.3c-3.5-0.8-6.5-0.7-9.1,0.1
				c-2.6,0.8-4.8,2.1-6.5,3.8c-1.7,1.7-3,3.6-3.8,5.8c-0.8,2.2-1.2,4.3-1.2,6.3c0,2,0.5,3.7,1.4,5.1c0.1,0.2,0.3,0.3,0.4,0.5
				c-0.3,0.6-0.5,1.2-0.8,1.7c-1.3,2.4-2.7,4.5-4.4,6.3c-1.7,1.8-3.4,2.7-5.4,2.8c-1.1,0-1.7-0.9-1.8-2.6c-0.1-1.7,0-3.9,0.3-6.4
				c0.3-2.5,0.9-5.2,1.6-8c0.7-2.8,1.4-5.1,2.1-7.1c0.3-0.9,0.2-1.8-0.3-2.5c-0.5-0.8-1.2-1.3-2-1.7c-0.8-0.3-1.6-0.4-2.4-0.3
				c-0.8,0.2-1.4,0.7-1.7,1.6c-0.3,0.8-0.6,1.7-0.8,2.5c-0.2,0.8-0.5,1.7-0.7,2.7c-1.2,3.1-2.5,5.9-4,8.4c-1.5,2.4-3.2,3.9-5,4.3
				c-1.1,0.2-1.7-0.2-2-1.3c-0.2-1.1-0.2-2.6,0-4.4c0.2-1.8,0.6-3.9,1.1-6.2c0.5-2.3,0.9-4.4,1.3-6.5c0.2-0.9,0-1.7-0.6-2.4
				c-0.6-0.7-1.3-1.1-2.2-1.3c-0.8-0.2-1.7-0.2-2.5,0.2c-0.8,0.3-1.3,1-1.4,2c-0.5,2.6-0.8,5.3-1,8c-0.1,1-0.1,1.9-0.1,2.8
				c-0.2,0.5-0.4,1.1-0.7,1.6c-1,2.3-2.1,4.5-3.4,6.6c-1.3,2.1-2.7,3.8-4.2,5.2c-1.5,1.4-3.1,2.1-4.7,2.1c-1.1,0-1.7-0.8-2-2.5
				c-0.3-1.7-0.3-3.8-0.1-6.4c0.2-2.6,0.6-5.4,1.1-8.5c0.5-3.1,1.1-6.1,1.6-9c0.5-2.9,1.1-5.5,1.6-7.8c0.5-2.3,0.8-3.9,0.9-4.8
				c1.2-1.1,2.4-2.4,3.5-4.1c1.1-1.7,2-3.4,2.9-5.3c0.8-1.9,1.5-3.8,2.1-5.7c0.5-1.9,0.9-3.6,1-5.2c0.1-1.5,0-2.8-0.3-3.7
				c-0.3-1-1-1.5-1.9-1.6c-1.2,0-2.3,0.6-3.3,1.8c-1.1,1.2-2.1,2.7-3.1,4.6c-1,1.9-1.9,4-2.8,6.2c-0.8,2.3-1.6,4.5-2.3,6.6
				c-0.7,2.1-1.3,4-1.8,5.8c-0.5,1.7-0.8,3-1,3.7c-1.5,1.3-2.8,2.4-3.9,3.3c-1,0.9-2.1,1.8-3.1,2.6c-1,0.8-2,1.7-3.1,2.6
				c-1.1,0.9-2.3,2-3.8,3.3c0.2-1.2,0.3-2.8,0.5-4.9c0.2-2.1,0.4-4.5,0.6-7.1c0.2-2.6,0.4-5.3,0.6-8.1c0.2-2.8,0.5-5.5,0.7-8.1
				c0.2-2.6,0.5-4.9,0.9-6.9c0.3-2,0.7-3.5,1.1-4.5c0.4-0.9,0.6-1.6,0.6-1.9c0-0.3-0.2-0.6-0.6-0.7c-3.8-0.8-7.7-1.6-11.5-2.3
				c-3.8-0.7-7.7-1-11.5-0.8c-4.5,0.2-8.1,1.1-10.8,2.8c-2.8,1.7-4.8,3.8-6.2,6.3c-1.3,2.5-2.1,5.3-2.1,8.2
				c-0.1,2.9,0.4,5.6,1.4,8.1c1,2.5,2.5,4.5,4.4,6.2c2,1.7,4.2,2.4,6.9,2.4c2.5-0.1,4.7-0.9,6.6-2.5c2-1.6,3.6-3.6,4.8-6.2
				c0.3-0.5,0.2-1-0.2-1.3c-0.4-0.3-0.7-0.2-1,0.5c-1.1,2.2-2.5,4.1-4.3,5.5c-1.8,1.4-3.8,2.2-6,2.2c-2.4,0.1-4.4-0.6-6.2-2.1
				c-1.7-1.5-3-3.3-3.9-5.5c-0.9-2.2-1.3-4.6-1.2-7.3c0.1-2.6,0.7-5.1,2-7.4c1.3-2.3,3.2-4.2,5.8-5.8c2.6-1.6,5.9-2.4,10-2.5
				c3.7-0.1,7.4,0.2,11,0.8c3.6,0.6,7.3,1.3,11,2.2c-0.7,1.2-1.4,3-2.1,5.2c-0.7,2.3-1.5,4.8-2.2,7.6c-0.7,2.8-1.4,5.7-2.1,8.8
				c-0.7,3.1-1.3,6-1.9,8.9c-0.6,2.9-1.1,5.5-1.5,7.8c-0.4,2.3-0.8,4.1-1,5.4c-1.3,1.2-2.9,3-4.7,5.5c-1.8,2.5-3.5,5.3-5.2,8.2
				c-1.7,2.9-3.1,5.8-4.3,8.8c-1.2,2.9-1.9,5.3-2,7.3c-0.2,3.8,1.3,5.6,4.3,5.6c2.1,0,4.1-1,6-3.1c1.9-2,3.7-4.7,5.4-8.1
				c1.7-3.4,3.1-7.2,4.4-11.5c1.3-4.3,2.3-8.7,3.1-13.2c1.5-1.3,2.7-2.4,3.7-3.3c1-0.9,2-1.8,3-2.6c1-0.8,2-1.7,3-2.6
				c1-0.9,2.3-1.9,3.9-3.2c-0.3,1.2-0.7,3-1.1,5.2c-0.4,2.2-0.8,4.6-1.1,7.3c-0.3,2.6-0.5,5.3-0.5,8c0,2.7,0.1,5.2,0.5,7.4
				c0.4,2.2,1.1,4.1,2.1,5.5c1,1.4,2.4,2.1,4.3,2.1c2,0,3.9-0.8,5.6-2.2c1.7-1.5,3.3-3.3,4.7-5.5c1.3-2.1,2.6-4.3,3.6-6.7
				c0,0.4,0.1,0.8,0.2,1.1c0.4,2.1,1.1,3.8,2.2,5c1.1,1.2,2.8,1.7,5,1.3c1.5-0.4,2.8-1.2,4-2.4c1.2-1.2,2.3-2.7,3.3-4.5
				c-0.3,2.1-0.4,4.1-0.4,6c0,1.9,0.3,3.6,0.9,5.1c0.5,1.5,1.4,2.7,2.5,3.6c1.1,0.9,2.6,1.3,4.4,1.3c2.4-0.5,4.4-1.6,6.2-3.4
				c1.7-1.8,3.2-3.9,4.5-6.3c0.3-0.6,0.6-1.2,0.9-1.8c0.7,0.4,1.4,0.6,2.3,0.7c1.2,0.1,2.5-0.7,3.9-2.2c1.3-1.6,2.7-3.5,4-5.8
				c1.3-2.3,2.6-4.6,3.8-7.1c1.2-2.5,2.2-4.7,3.2-6.5h0.3c-0.2,3.2-0.4,6.9-0.7,11.1c-0.3,4.3-0.8,8.7-1.4,13.3
				c-2.3,1.4-4.9,3.2-7.8,5.3c-2.9,2.2-5.6,4.6-8.2,7.4c-2.5,2.8-4.6,5.9-6.3,9.3c-1.7,3.4-2.5,7-2.3,10.8c0.1,1.8,0.6,3.2,1.5,4.3
				c0.9,1.1,2.4,1.6,4.4,1.6c3.1,0,6-1.2,8.5-3.5c2.5-2.3,4.8-5.4,6.8-9.3c2-3.8,3.7-8.2,5.2-13c1.5-4.8,2.7-9.6,3.7-14.5
				c2.7-1.7,4.8-3.1,6.4-4.4c1.6-1.2,2.9-2.6,4-4c1.1-1.5,2-3.1,2.9-5.1c0.2-0.4,0.4-0.9,0.6-1.4c0,0.4,0.1,0.8,0.1,1.2
				c0.3,3.4,0.7,6.6,1.3,9.6c0.5,3,1,5.3,1.5,7c-2.2,2-4.1,4.2-5.7,6.5c-1.7,2.3-2.7,5.3-3.1,8.8c-0.2,3,0.4,5.2,1.8,6.7
				c1.5,1.5,3.2,2,5.1,1.6c2-0.4,3.9-1.8,5.7-4.2c1.8-2.4,3-6,3.5-10.7c0.2-2.5,0.3-4.5,0.3-6.2c0-1.7-0.2-3.3-0.4-4.8
				c2.8-1.8,5.4-4.3,8-7.5c2-2.4,3.7-5,5.2-7.8C305,111.6,306.1,108.8,306.7,106z M203,87.5c0.3-2.3,0.7-4.7,1.2-7.1
				c0.5-2.4,1.1-4.6,1.8-6.4c0.7-1.8,1.6-2.8,2.6-2.8c0.8,0,1.1,0.9,1,2.6c-0.1,1.7-0.5,3.8-1.2,6.1c-0.7,2.3-1.6,4.7-2.6,7
				c-1.1,2.3-2.2,4.1-3.5,5.4C202.5,91.5,202.7,89.8,203,87.5z M170.5,127.7c-0.7,3.8-1.4,7.1-2.2,10c-0.8,2.9-1.8,5.1-2.9,6.8
				c-1.1,1.7-2.5,2.5-4.1,2.5c-1.1-0.1-1.8-0.4-2.2-1c-0.4-0.6-0.6-1.6-0.5-2.9c0.1-1.6,0.7-3.8,1.7-6.5c1.1-2.7,2.4-5.4,3.9-8.1
				c1.5-2.7,3-5.3,4.6-7.6c1.6-2.3,2.9-4.1,4-5.1C171.8,119.9,171.1,123.9,170.5,127.7z M257.9,112.4c-1.1,2.3-2.2,4.5-3.4,6.5
				c-1.2,2-2.3,3.7-3.5,5.1c-1.2,1.4-2.3,2.1-3.3,2.1c-0.8-0.1-1.1-0.8-0.8-2.3c0.3-0.8,0.7-1.6,0.9-2.4c0.5-1.3,0.9-2.4,1.3-3.5
				c0.2-0.4,0.4-0.8,0.6-1.1c1.3-2.4,3-4.6,5-6.7c2-2.1,4-3.4,6.1-3.9C260,108,259,110.1,257.9,112.4z M258.1,145.5
				c-1,4.2-2.2,8-3.7,11.2c-1.5,3.3-3.2,5.9-5.2,7.9c-2,2-4.4,3-7.1,3c-1.5,0-2.5-0.4-3.2-1.2c-0.7-0.8-1-1.9-1.1-3.3
				c-0.1-3.5,0.7-6.8,2.2-9.9c1.6-3.2,3.5-6,5.8-8.6c2.3-2.6,4.8-4.9,7.5-7c2.7-2,5.1-3.7,7.1-5
				C259.9,136.9,259.1,141.2,258.1,145.5z M284.2,146.8c-0.3,2.5-1,4.4-2,5.5c-1,1.1-2,1.6-3,1.6c-1-0.1-1.9-0.7-2.6-1.8
				c-0.7-1.1-1-2.7-0.9-4.7c0.2-3.1,1.1-5.7,2.5-7.8c1.5-2.2,3.2-4.1,5.2-5.9c0.4,1.7,0.7,3.7,0.8,6.2
				C284.5,142.3,284.5,144.6,284.2,146.8z"/>
			<path d="M302.5,132.3c-0.9-0.1-1.8,0.2-2.5,1c-0.7,0.7-1.1,1.7-1.3,2.8c-0.1,1,0.2,2,0.8,2.9c0.6,0.9,1.5,1.4,2.5,1.3
				c-0.2,0.8-0.5,1.4-0.9,2c-0.5,0.5-1.1,0.8-2.1,0.9c-0.4,0-0.6,0.2-0.5,0.6c0,0.5,0.2,0.7,0.5,0.8c1.5,0,2.7-0.7,3.8-1.9
				c1.1-1.2,1.8-2.6,2.2-4.1c0.4-1.5,0.4-2.9,0-4.2C304.8,133.1,303.9,132.4,302.5,132.3z"/>
		</g>
		<g>
			<path d="M120.5,155.6c-2-0.4-4-0.5-5.9-0.8c-0.1,0-0.2,0-0.4,0.1c-0.5,0.1-1.3,2-0.3,2.4c0.5,0,0.9,0,1.2,0.5
				c-0.1,1-0.9,4.2-1.6,5.3c-0.8,1-1.8,2.2-2.7,3.2c-1.4,1.8-3,3.3-4.9,4.5c-1.2,0.8-2.4,1.5-3.5,2.3c-0.2,0.1-0.6,0.4-1,0
				c-0.1-0.1-0.1-0.3-0.1-0.5c0-0.8,0.1-1.6,0.1-2.3c0.1-3.6,0.4-7.1,0.2-10.7V159c0-1.1,0.2-2.1,0.8-3c0.4-0.5,0.6-1.1,0.8-1.6
				c0.1-0.4,0.1-0.7-0.1-0.8c-0.4-0.1-0.8-0.3-1.1-0.4c-1.1-0.2-2.3-0.5-3.5-0.2c-0.4,0.1-0.9,0.1-1.4,0.2c-0.4-0.1-0.8-0.1-1.1,0
				c-0.5,0.1-0.9,0.5-0.8,1c0.3,0.8,0.4,0.8,0.9,1.6c0.7,0.8,1,1.8,0.8,3c-0.2,1.8-0.4,3.6-0.4,6.1c-0.1,1.7-0.2,3.4-0.4,5
				c0.1,0.6,0,1.2-0.1,1.8c-0.2,5-0.3,9.9-0.1,14.7c0.1,2.1,0,4.1,0.6,6.3c0.2,0.9-0.5,1.6-1.4,1.9c-0.2,0.1-0.4,0.1-0.6,0.2
				c-0.2,0.1-0.3,0.3-0.4,0.5c0,0.2,0.2,0.4,0.4,0.5c1.3,0.6,2.8,1.2,4.1,0.9c0.8-0.2,4.9-0.4,5.3-1.4c-0.5-0.6-1.1-0.7-1.6-0.8
				c-1.1-0.3-1.2-0.6-1.3-1.6c-0.1-1.1-0.2-2.1-0.2-3.1c-0.1-0.5,0-1.1,0-1.6c0.2-1.5,0.5-8.4,0.4-9.7c0.1-0.6,0.1-1.3,0.4-1.9
				c1.1-0.4,2-0.8,3.2-1.3c0.5-0.2,1.1-0.1,1.4,0.3c1.1,0.6,2,1.4,2.5,2.4c1.5,1.9,2,4.2,2.5,6.4c0.1,0.2,0.1,0.4,0.1,0.6
				c0,2.7,0.2,5.3,0.3,8c0.1,0.5,0,1.1,0,1.6c-0.2,0.4-0.6,0.4-1.1,0.4c-0.2-0.1-0.6,0.1-0.9,0.2c-0.1,0.1-0.3,0.3-0.3,0.5
				c0,0.1,0.1,0.4,0.3,0.4c0.2,0.1,0.4,0.1,0.6,0.1c0.8,0.1,7.4,0.8,8.2,0.7c0.4,0,0.6,0,0.7-0.1c0.3-0.2,0.6-0.5,0.7-0.7
				c0.1-0.1-0.2-0.5-0.4-0.6c-0.2-0.1-0.6-0.2-1-0.4c-0.3-0.2-0.8-0.4-1.1-0.5c-0.3-0.6-0.3-1.1-0.4-1.6c0.1-0.4,0.1-0.9,0.1-1.3
				c-0.3-2.8-0.4-5.4-0.8-8.1c-0.3-2-0.8-3.9-1.9-5.7c-0.8-1.2-1.6-2.3-3-3.1c-0.8-0.6-1.7-0.8-2.4-1.3c-0.4-0.1-0.6-0.4-0.8-0.6
				c0.3-0.3,0.4-0.4,0.6-0.6c0.8-0.6,1.7-1.3,2.4-1.8c1.5-1.1,2.6-2.3,3.4-4c0.1-0.3,0.4-0.6,0.6-0.8c1-1,3-6.3,2.8-7
				c0.1-0.3,0.4-0.4,0.7-0.5c1.1-0.3,1.8,1.6,3.5-0.5c0.1-0.3,0.1-0.7,0-1C121.7,156.3,121.3,155.9,120.5,155.6z"/>
			<path d="M135.3,155.2c-0.4-0.1-0.7-0.4-1.1-0.3c-1.1-0.1-2.3-0.4-3.2-0.3c-1.4,0-2.8,0.2-4,0.4c-0.6,0-1.1,0.3-1.6,0.8
				c-0.2,0.2-0.1,0.8,0.1,0.9c0.5,0.1,0.9,0.3,1.3,0.2h1.8v2.2c-0.1,0.7-0.2,1.4-0.2,2.3c-0.2,2.5-0.3,5.2-0.4,7.5
				c0,1-0.1,1.8-0.1,2.8c-0.1,2.3-0.1,4.6-0.1,6.8c-0.1,2.8,0.1,5.6,0.1,8.5c0,1.7-0.1,3.5,0,5.1c0,0.9-0.1,1.7-0.4,2.5
				c-0.1,0.4-0.4,0.8-0.8,0.8l-1.3,0.4c-0.1,0.1-0.1,0.4,0,0.6c0.2,0.5,0.8,0.8,1.5,0.8c0.8-0.1,2.9,0.1,3.7,0.1
				c0.6-0.1,1.3,0,1.8-0.2c0.3-0.1,0.6-0.1,0.9-0.3c0.1-0.2,0.3-0.4,0.2-0.6l-0.5-0.4c-0.4-0.1-0.8,0.1-1.3-0.1
				c0.1-0.1,0.2-0.4,0.1-0.6c0.1-0.8,0.3-1.6,0.4-2.3c0.1-0.7,0-1.5-0.1-2.2l-0.1-5.6c0.1-1.2,0.1-2.3,0.1-3.5c0.1-1.5,0-3.1,0-4.6
				c0.1-1.9,0.2-3.7,0.3-5.6c0.1-1,0.1-2,0.1-3.1c0-1.4,0-2.9,0.2-4.4c0.1-0.5,0.1-1,0.1-1.3c0.1-0.5,0-0.9,0.1-1.3
				c0.1-0.6,0.1-1.2,0.1-1.8c-0.1-0.4-0.1-0.8,0-1.3c-0.1-0.9,0.1-1,1.2-1.1c0.2,0,0.4,0.1,0.6,0.1c0.1,0,0.4-0.2,0.5-0.2
				c0.4-0.1,0.6-0.8,0.3-1.1C135.6,155.4,135.4,155.2,135.3,155.2z"/>
			<path d="M154.3,174c-1.1-0.8-2.3-1.7-3.7-2.2c-0.8-0.2-1.6-0.6-2.3-1.1c-0.5-0.8-1.1-1.5-1.8-2.3c-0.1-0.2-0.3-0.4-0.3-0.6
				c-0.2-0.6-0.7-1.5-0.8-2.2c-0.4-1.4-0.3-2.9,0.4-4.4c0.4-1.3,3.3-4,6.4-3.6c0.4,0.1,0.8,0.4,1,0.4l1.5,1.6
				c0.6,0.6,1.1,3.1,1.3,3.2c1.2,0.2,1.6,0.2,2.4-0.7l-0.8-2.3c0,0-0.1-0.1-0.1-0.2c-0.4-0.8-1-1.6-1.3-2c-4.5-4.7-8.5-4.6-12.5-0.8
				c-0.4,0.4-0.8,0.8-1.1,1.1c-1.1,0.7-1.7,3.6-1.7,4.1c-0.3,2.1-1.5,5.6,3.8,10.3c0.5,0.4,1.3,0.7,1.8,1.1c0.5,0.4,1,0.6,1.3,0.9
				c1.2,0.9,2.3,1.8,3.4,2.8c0.4,0.3,0.7,0.7,0.9,1.1c0.8,1.2,1.2,2.4,1.7,4c0.3,0.8,0.3,1.8,0.3,2.9c-0.1,1.7-0.7,3.3-1,4.9
				c-0.4,1.8-1.2,3.2-2.2,4.7c-0.4,0.6-0.8,1.1-1.3,1.6c-0.4,0.4-0.8,0.5-1.4,0.4c-0.7-0.2-1.4-0.4-2.1-0.8c-2.2-1.6-3.5-6-3.4-9.7
				c0-0.3,0.3-0.5,0.4-0.7c0.3-0.7,0.2-1.1-0.6-1.3c-0.2,0-0.5-0.1-0.8-0.1c-0.9,0.1-2,0.2-3.1,0.4c-0.1,0-0.6,0.2-0.8,0.4
				c-0.2,0.1-0.2,0.8,0,0.9c0.1,0.1,0.4,0.2,0.7,0.3c0.1,0.1,0.6,0.3,0.8,0.3c0,0.3,0,0.5-0.1,0.6c-0.1,0.7-0.1,1.3-0.1,2
				c0.1,0.5,0,1.2,0,1.9c0,0.2-0.1,0.5,0.1,0.6c0.2,1.9,1.1,4.1,2.8,5.3c3.2,2.7,7.6,2.9,10.5,1.3c2-0.9,3.4-2.5,4.5-4.2
				c0.6-0.9,1-2.1,1.3-3.2c0.6-2,0.8-4,0.8-6.1c0-1.6-0.3-3-0.8-4.4C157.5,177.5,156.3,175.6,154.3,174z"/>
			<path d="M178.6,174c-1.1-0.8-2.3-1.7-3.7-2.2c-0.8-0.2-1.6-0.6-2.3-1.1c-0.5-0.8-1.1-1.5-1.8-2.3c-0.1-0.2-0.3-0.4-0.3-0.6
				c-0.2-0.6-0.7-1.5-0.8-2.2c-0.4-1.4-0.3-2.9,0.4-4.4c0.4-1.3,3.3-4,6.4-3.6c0.4,0.1,0.8,0.4,1,0.4l1.5,1.6
				c0.6,0.6,1.1,3.1,1.3,3.2c1.2,0.2,1.6,0.2,2.4-0.7l-0.8-2.3c0,0-0.1-0.1-0.1-0.2c-0.4-0.8-1-1.6-1.3-2c-4.5-4.7-8.5-4.6-12.5-0.8
				c-0.4,0.4-0.8,0.8-1.1,1.1c-1.1,0.7-1.7,3.6-1.7,4.1c-0.3,2.1-1.5,5.6,3.8,10.3c0.5,0.4,1.3,0.7,1.8,1.1c0.5,0.4,1,0.6,1.3,0.9
				c1.2,0.9,2.3,1.8,3.4,2.8c0.4,0.3,0.7,0.7,0.9,1.1c0.8,1.2,1.2,2.4,1.7,4c0.3,0.8,0.3,1.8,0.3,2.9c-0.1,1.7-0.7,3.3-1,4.9
				c-0.4,1.8-1.2,3.2-2.2,4.7c-0.4,0.6-0.8,1.1-1.3,1.6c-0.4,0.4-0.8,0.5-1.4,0.4c-0.7-0.2-1.4-0.4-2.1-0.8c-2.2-1.6-3.5-6-3.4-9.7
				c0-0.3,0.3-0.5,0.4-0.7c0.3-0.7,0.2-1.1-0.6-1.3c-0.2,0-0.5-0.1-0.8-0.1c-0.9,0.1-2,0.2-3.1,0.4c-0.1,0-0.6,0.2-0.8,0.4
				c-0.2,0.1-0.2,0.8,0,0.9c0.1,0.1,0.4,0.2,0.7,0.3c0.1,0.1,0.6,0.3,0.8,0.3c0,0.3,0,0.5-0.1,0.6c-0.1,0.7-0.1,1.3-0.1,2
				c0.1,0.5,0,1.2,0,1.9c0,0.2-0.1,0.5,0.1,0.6c0.2,1.9,1.1,4.1,2.8,5.3c3.2,2.7,7.6,2.9,10.5,1.3c2-0.9,3.4-2.5,4.5-4.2
				c0.6-0.9,1-2.1,1.3-3.2c0.6-2,0.8-4,0.8-6.1c0-1.6-0.3-3-0.8-4.4C181.7,177.5,180.6,175.6,178.6,174z"/>
			<path d="M206.3,155.2c-0.6-0.1-1.2-0.2-1.8-0.4c-0.5-0.1-0.8-0.1-1.3-0.1l-8.5-0.1c-1.1-0.1-2.1-0.1-3.1,0.1
				c-0.6,0.1-1.1,0.1-1.6,0.2c-0.9,0.1-1.8,0.4-2.7,0.5c-0.4,0.2-0.6,0.5-0.7,0.8c-0.1,0.7,0,1.4,0.3,2c0.1,0.4,0.4,0.5,0.8,0.5
				c0.4,0,0.6-0.1,0.8-0.6c0.1-0.2,0.1-0.5,0.3-0.8c0.1-0.2,0.4-0.4,0.7-0.2c0.1,0.1,0.4,0.3,0.4,0.4c0,0.6-0.1,1.3-0.1,1.9
				c0.1,1.3-0.1,2.7-0.2,4.1c-0.2,3.1-0.4,6.2-0.5,9.5c-0.1,1.8-0.1,3.6-0.2,5.4c-0.4,4.8-0.6,9.5-0.3,14.2v1.2
				c0,0.4,0.4,0.7,0.1,1.2c-0.4,0.2-0.8,0.1-1.3,0.1h-1.5c-0.1,0-0.4,0.1-0.4,0.3c-0.1,0.3,0,0.6,0.1,0.8c0.3,0.1,0.5,0.3,0.8,0.4
				c1.5,0.6,3.1,0.8,4.7,0.8c1.6,0.1,3.3-0.1,5-0.2c0.9-0.1,1.8-0.1,2.8-0.2c0.5,0,1,0,1.5,0.1c1.6,0.2,3.2,0.1,4.7,0
				c0.4-0.1,0.6-0.1,0.8-0.4c0.4-0.4,0.7-1.1,0.8-1.8l0.2-2.3c0.1-0.6-0.1-1-0.6-1.3c-0.2-0.1-0.4-0.2-0.6-0.3
				c-0.4-0.2-0.8-0.1-0.9,0.4l-0.4,1.6c-0.1,0.5-0.4,0.8-0.8,0.8c-0.4,0.1-0.8,0.2-1.3,0.2l-2.4,0.2c-1.2,0-2.5,0.1-3.8,0.1
				c-0.6,0-1.2-0.1-1.8-0.2c-0.4-1.5-0.6-2.8-0.5-4.3c0-0.8,0.1-1.8,0.1-2.8c-0.1-3.2,0.3-6.4,0.6-9.5c0.1-0.4,0.1-0.8,0.5-1
				c0.6,0,1.3,0.2,2,0.3c0.8,0.1,1.5,0.1,2.1,0.1c0.1,0.3,0.2,0.3,0.2,0.4c0.2,1.3,1,1.9,1.9,2.5c0.6,0.5,1.1,0,1.1-0.8
				c0-0.3,0-0.6-0.1-0.9c0-1-0.1-1.9-0.2-2.8c-0.1-0.4-0.3-0.9-0.4-1.4c-0.2-0.6-0.6-0.8-1.1-1c-0.7-0.3-1.1,0.1-1.3,0.9v0.3
				c-0.1,0.3-0.3,0.6-0.4,0.6c-1.1,0.2-2.2,0.4-3.3,0.2c-0.4-0.1-0.6-0.3-0.6-0.9v-0.6c0.1-2.6,0.3-5.1,0.4-7.5
				c0.1-3,0.1-6.1-0.4-9.2c0,0,0-0.1,0.1-0.1c0.3-0.4,0.8-0.1,1.2-0.1l7.4,0.1c0.1,0,0.1,0.1,0.1,0.1c0.2,0.4,0.1,0.9,0,1.3
				c-0.4,1.1-0.1,2,0.7,2.8c0.2,0.1,0.4,0.5,0.5,0.6c0.8,1,1.6,1,2,0.1c0.1-0.1,0.1-0.3,0.1-0.5c0.1-1.2,0.3-2.5,0.5-3.7
				c0-0.2,0.1-0.4,0.1-0.8C207.3,156,206.9,155.5,206.3,155.2z"/>
			<path d="M230.9,179.7c-0.7-2.3-1.8-4.2-3.8-5.7c-1.1-0.8-2.3-1.7-3.7-2.2c-0.8-0.2-1.6-0.6-2.3-1.1c-0.5-0.8-1.1-1.5-1.8-2.3
				c-0.1-0.2-0.3-0.4-0.3-0.6c-0.2-0.6-0.7-1.5-0.8-2.2c-0.4-1.4-0.3-2.9,0.4-4.4c0.4-1.3,3.3-4,6.4-3.6c0.4,0.1,0.8,0.4,1,0.4
				l1.5,1.6c0.6,0.6,1.1,3.1,1.3,3.2c1.2,0.2,1.6,0.2,2.4-0.7l-0.8-2.3c0,0-0.1-0.1-0.1-0.2c-0.4-0.8-1-1.6-1.3-2
				c-4.5-4.7-8.5-4.6-12.5-0.8c-0.4,0.4-0.8,0.8-1.1,1.1c-1.1,0.7-1.7,3.6-1.7,4.1c-0.3,2.1-1.5,5.6,3.8,10.3
				c0.5,0.4,1.3,0.7,1.8,1.1c0.5,0.4,1,0.6,1.3,0.9c1.2,0.9,2.3,1.8,3.4,2.8c0.4,0.3,0.7,0.7,0.9,1.1c0.8,1.2,1.2,2.4,1.7,4
				c0.3,0.8,0.3,1.8,0.3,2.9c-0.1,1.7-0.7,3.3-1,4.9c-0.4,1.8-1.2,3.2-2.2,4.7c-0.4,0.6-0.8,1.1-1.3,1.6c-0.4,0.4-0.8,0.5-1.4,0.4
				c-0.7-0.2-1.4-0.4-2.1-0.8c-2.2-1.6-3.5-6-3.4-9.7c0-0.3,0.3-0.5,0.4-0.7c0.3-0.7,0.2-1.1-0.6-1.3c-0.2,0-0.5-0.1-0.8-0.1
				c-0.9,0.1-2,0.2-3.1,0.4c-0.1,0-0.6,0.2-0.8,0.4c-0.2,0.1-0.2,0.8,0,0.9c0.1,0.1,0.4,0.2,0.7,0.3c0.1,0.1,0.6,0.3,0.8,0.3
				c0,0.3,0,0.5-0.1,0.6c-0.1,0.7-0.1,1.3-0.1,2c0.1,0.5,0,1.2,0,1.9c0,0.2-0.1,0.5,0.1,0.6c0.2,1.9,1.1,4.1,2.8,5.3
				c3.2,2.7,7.6,2.9,10.5,1.3c2-0.9,3.4-2.5,4.5-4.2c0.6-0.9,1-2.1,1.3-3.2c0.6-2,0.8-4,0.8-6.1
				C231.8,182.6,231.5,181.1,230.9,179.7z"/>
		</g>
		<path d="M314.7,198.8l-2.8-0.4c-0.7,1.1-1.2,2.1-1.5,2.8c-0.7,1.3-1.9,2.4-3,2.9l3.4-0.5c-2.3,0.7-4.7,0.7-7.1,1
			c-1,0.2-1.8,0.1-2.5,0.5c-1.4,0.5-2.8,1-4,1.7c-1.5,0.5-2.8,1.5-3.8,2.7c-0.7,0.6-1.3,1.6-1.4,2.7c-0.1,0.6-0.2,1.3,0.2,1.9
			c0.7,0.6,1-0.4,1.4-0.6c0.4-0.2,0.8-0.6,1.1-0.8c0.6-0.6,0.8-1.2,1.2-1.5c2.1-1.5,4.3-2.9,6.7-3.3h0.3c0.3-0.1,0.7,0.5,0.4,0.7
			c-0.2,0.6-0.6,1.6-0.6,2.5c-0.7,5.2-1.7,11.5-10.2,18.8c-1.5,1.2-3.4,1.7-5.3,2.4c-1.5,0.5-3.2,0.4-4.3-1.7
			c-0.2-0.7-2-4.1-2.2-5.1c-0.7-3.5-1-6.7-0.3-9.9c0.4-1.9,1-3.8,1.9-5.3c1.4-2.9,3.4-5.2,5.6-7.5c0.5-0.5,1.2-0.8,1.9-1.3
			c2.5-1.7,5.3-3.3,7.7-4.7c1.2-0.4,2-1.4,2.5-2.4c0.9-1,0.6-2.1,0.1-3.1c-0.2-0.8-1.2-0.7-1.9-0.8l-0.8,0.1l-8.9-0.8
			c-1.8-0.2-3.2-1.1-5-1.9c-0.2-0.1-0.3-0.2-0.6-0.5l-0.6-1.3c-1.5-5.3,3-22.3,18.9-18c0.7,0.2,1.3,0.6,2.4,0.6
			c0.3-0.1,0.7-0.2,0.8-0.6c0-0.1-0.1-0.6-0.2-0.7c-0.7-0.8-1.4-1.3-2.1-2.1c-1.8-2.3-7-7-13-4.6c-1,0.5-1.9,0.6-3.1,1.2l-2,1.2
			c-2.9,2.4-5.1,5.3-6.6,8.7c-0.8,1.6-1.3,3.1-1.8,4.7c-1,4-0.7,7.6,0.3,11.6c0.3,1.8,1.2,3,2.4,4c1.3,1.3,2.7,2.2,4.2,2.7
			c0.7,0.4,1.2,0.7,1.9,0.8c-0.2,0.7-0.7,1-1.1,1.3c-0.3,0.6-1.1,0.7-1.7,1.5c-1.8,1.9-3.4,4-4.6,6.5c-1.8,3.6-1.9,5-2.1,6.4
			c-0.3,2.3-0.8,7.5-0.1,10.4c0.9,4.1,2.3,8,4.9,11l0.6,0.6c3.9,4.5,10.4,5.3,19-1c5.1-3.6,7.2-8.1,9.3-18.3
			c0.6-3.1,0.6-3.3-0.1-5.9c0.8-0.4,1.5-0.6,2.4-1c1-0.4,1.9-1,2.7-2.2c0.6-0.8,1.4-2.1,2-3.3C316.5,200.3,316.1,199,314.7,198.8z"
			/>
		<g>
			<path d="M148.4,240.6c0.9,0,1.7-0.4,2.4-1.2c0.7-0.8,1-1.7,1-2.8c0-1.2-0.3-2.1-1-2.9c-0.7-0.8-1.4-1.2-2.4-1.2
				c-0.9,0-1.7,0.4-2.4,1.2c-0.7,0.8-1,1.7-1,2.9c0,1.1,0.3,2,1,2.8C146.7,240.2,147.4,240.6,148.4,240.6z"/>
			<path d="M342.7,250.8c-1.1,2.8-2.3,5.6-3.6,8.5c-1.3,2.9-2.8,5.8-4.4,8.5c-1.6,2.8-3.3,5.4-5.2,7.8c-1.8,2.5-3.8,4.6-6,6.3
				c1.2-7.1,2.4-13.9,3.6-20.6c1.2-6.7,2.3-13.7,3.3-21.2c0.2-1-0.1-1.8-0.7-2.5c-0.6-0.7-1.3-1.1-2.2-1.3c-0.8-0.2-1.7-0.1-2.4,0.2
				c-0.8,0.3-1.2,1.1-1.4,2.2c-0.6,2.1-1.3,4.1-2,6.1c-0.7,2-1.5,3.8-2.4,5.5c-0.9,1.7-1.8,3-2.9,4.1c-1,1.1-2.1,1.8-3.3,2.1
				c-1,0.2-1.6-0.2-1.8-1.3c-0.2-1.1-0.3-2.6-0.1-4.4c0.2-1.8,0.5-3.9,1-6.2c0.5-2.3,0.9-4.4,1.3-6.5c0.2-0.9,0-1.7-0.6-2.4
				c-0.6-0.7-1.3-1.1-2.2-1.3c-0.8-0.2-1.7-0.1-2.4,0.2c-0.8,0.3-1.3,1-1.5,2c-0.5,2.6-0.8,5.3-1,8c-0.2,2.7-0.1,5.1,0.3,7.3
				c0.1,0.5,0.2,1,0.4,1.5c-0.3,0.8-0.6,1.7-0.9,2.7c-0.8,2.3-1.7,4.8-2.7,7.5c-1,2.7-2.1,5.4-3.3,8.1c-1.2,2.7-2.5,5.1-3.7,7.3
				c-1.3,2.2-2.6,4-3.9,5.4c-1.3,1.4-2.6,2.1-3.8,2.1c-0.7,0.1-1-0.6-1-2c0-1.4,0.2-3.1,0.7-5.3c0.5-2.2,1.1-4.6,1.8-7.3
				c0.8-2.7,1.6-5.3,2.4-7.9c0.8-2.6,1.7-5,2.4-7.3c0.8-2.3,1.4-4.1,1.8-5.4c0.2-0.8,0.2-1.5-0.1-2.1c-0.3-0.6-0.7-1.1-1.2-1.6
				c-0.5-0.4-1.2-0.7-1.8-0.9c-0.7-0.2-1.3-0.2-1.8,0c-3.7-0.6-6.8-0.5-9.3,0.3c-2.5,0.8-4.6,2-6.1,3.6c-1.5,1.6-2.6,3.4-3.2,5.5
				c-0.6,2-0.8,3.9-0.5,5.7c0,0.3,0.1,0.5,0.2,0.7c-0.1,0.3-0.2,0.6-0.3,0.9c-1,2.6-2.1,5.3-3.3,8c-1.2,2.7-2.5,5.2-3.7,7.3
				c-1.3,2.2-2.6,3.9-3.9,5.4c-1.3,1.4-2.6,2.2-3.8,2.2c-0.8,0-1.2-1.1-1.3-3.2c-0.1-2.1,0-4.9,0.3-8.5c0.3-3.5,0.9-7.5,1.6-12
				c0.7-4.5,1.6-9.1,2.5-13.9c0.9-4.8,1.9-9.4,2.8-14.1c1-4.6,1.9-8.8,2.7-12.6c0.8-3.8,1.6-6.9,2.2-9.4c0.6-2.5,1-4,1.2-4.4
				c0.3-0.9,0.2-1.8-0.3-2.5c-0.5-0.8-1.2-1.3-2-1.7c-0.8-0.3-1.6-0.4-2.4-0.2c-0.8,0.2-1.4,0.7-1.7,1.7c-0.2,0.6-0.7,2.2-1.3,4.7
				c-0.6,2.5-1.3,5.7-2.1,9.5c-0.8,3.8-1.7,8-2.5,12.7c-0.9,4.7-1.7,9.4-2.4,14.3c-3.9-0.5-7.2-0.2-9.8,0.9
				c-2.7,1.1-4.8,2.7-6.3,4.7c-1.6,2-2.6,4.3-3.2,6.8c-0.5,2.5-0.6,4.8-0.3,7c0,0,0,0,0,0.1c-0.3,0.8-0.6,1.7-1,2.5
				c-1.4,3.5-2.8,6.7-4.3,9.7c-1.5,3-2.9,5.3-4.3,6.9c-0.3,0.4-0.7,0.7-1.2,1s-1,0.5-1.4,0.6c-0.5,0.1-0.8,0-1.2-0.2
				c-0.3-0.3-0.5-0.9-0.5-1.8c0-1.4,0.3-3.3,1-5.8c0.7-2.5,1.5-5.2,2.4-8.1c0.9-2.9,1.8-5.9,2.6-8.9c0.8-3,1.4-5.7,1.6-8.2
				c0.2-2.5,0.1-4.5-0.5-6c-0.6-1.5-1.9-2.3-3.9-2.3c-1.8,0-3.5,0.6-5,1.7c-1.5,1.1-2.8,2.5-3.9,4.1c-1.2,1.7-2.1,3.5-2.9,5.4
				c-0.8,2-1.5,3.7-2,5.4c0.2-2,0.3-4.2,0.5-6.5c0.2-2.3,0.3-4.8,0.6-7.3c2.5-1.5,5.5-3.6,8.8-6.3c3.3-2.8,6.5-5.8,9.4-9
				c2.9-3.3,5.4-6.6,7.4-10.1c2-3.5,3.1-6.6,3.1-9.3c0-3.5-0.8-6.2-2.4-8.2c-1.6-2-3.8-3-6.7-3c-3.2,0-6,1.2-8.5,3.5
				c-2.5,2.3-4.8,5.4-6.8,9.2c-2,3.8-3.7,8.1-5.2,12.8c-1.5,4.8-2.7,9.6-3.7,14.4c-1,4.8-1.8,9.5-2.4,13.9c0,0,0,0.1,0,0.1
				c-0.3,0.8-0.6,1.7-1,2.6c-1.4,3.7-2.9,7.3-4.7,10.9c-1.7,3.6-3.6,6.7-5.5,9.4c-2,2.6-3.9,4.1-5.7,4.2c-0.8,0-1.3-0.7-1.5-2.1
				c-0.2-1.4-0.3-3.3-0.2-5.6c0.1-2.3,0.4-5,0.8-8.1c0.4-3.1,0.9-6.3,1.5-9.6c0.6-3.3,1.2-6.7,1.8-10.1c0.7-3.4,1.3-6.6,2-9.6
				c2.3,0.5,4.3,0.7,5.9,0.5c1.7-0.2,3.4-1.2,5.1-2.9c0.4-0.4,0.4-0.8,0.1-1.2c-0.3-0.4-0.7-0.4-1-0.1c-1.5,1.5-3,2.1-4.3,2
				c-1.3-0.1-3.1-0.5-5.2-1.1c0.7-3.2,1.3-5.9,1.9-8.1c0.6-2.1,0.9-3.5,1.1-4c0.3-0.9,0.2-1.8-0.3-2.5c-0.5-0.8-1.2-1.3-2-1.7
				c-0.8-0.3-1.6-0.4-2.4-0.2c-0.8,0.2-1.4,0.8-1.7,1.7c-0.2,0.6-0.6,2.2-1.2,4.6c-0.6,2.5-1.2,5.4-1.9,8.9c-1.2-0.2-2.4-0.2-3.6,0
				c-1.2,0.2-2.3,0.6-3.6,1.4c-0.5,0.3-0.5,0.8-0.2,1.3c0.3,0.6,0.7,0.8,1.1,0.6c0.9-0.6,1.8-1,2.8-1c0.9-0.1,1.9,0,3,0.2
				c-0.6,3.2-1.2,6.6-1.8,10.3c-0.5,2.8-0.8,5.7-1.2,8.5c-0.6,1.8-1.3,3.6-2.1,5.5c-0.8,2-1.7,4.1-2.5,6c-0.9,2-1.8,3.8-2.8,5.3
				c-1,1.5-2,2.8-3,3.8c-1,1-2.1,1.5-3.1,1.5c-1.1,0.1-1.7-0.7-1.7-2.4c-0.1-1.6,0.1-3.7,0.5-6.1c0.4-2.4,0.9-5,1.7-7.6
				c0.7-2.6,1.4-5,2.1-7c0.5-1.2,0.3-2.2-0.3-2.8c-0.7-0.7-1.6-1.2-2.7-1.5c-1.1-0.3-2.2-0.6-3.4-0.7c-1.2-0.2-2-0.3-2.5-0.6
				c0.4-1,0.9-2.3,1.4-3.9c0.6-1.6,1-3.2,1.2-4.7c0.2-1.5,0.1-2.9-0.4-4c-0.5-1.1-1.5-1.7-3.2-1.7c-1.8,0.1-3.2,0.9-4.2,2.5
				c-1,1.6-1.6,3.4-1.7,5.4c0,1.5,0.3,2.9,0.9,4.2c0.6,1.3,1.4,2.4,2.3,3.3c0.4,0.4,0.9,0.9,1.3,1.2c-0.5,1.4-1.2,3.1-2,5
				c-1,2.4-2.1,4.8-3.4,7.1c-1.3,2.3-2.8,4.4-4.4,6.1c-1.6,1.7-3.3,2.7-5.2,2.9c-1.1,0-1.7-0.9-1.8-2.6c-0.1-1.7,0-3.8,0.4-6.3
				c0.4-2.5,0.9-5.1,1.6-7.8c0.7-2.7,1.4-5.1,2.1-7.1c0.3-0.9,0.2-1.7-0.3-2.5c-0.5-0.7-1.2-1.3-2-1.7c-0.8-0.4-1.6-0.5-2.5-0.3
				c-0.8,0.2-1.4,0.7-1.7,1.6c-0.5,1.7-1.1,3.6-1.6,5.6c-0.5,1.9-0.9,3.9-1.2,5.9c-0.2,0.4-0.3,0.8-0.5,1.2
				c-1.2,2.8-2.5,5.4-3.8,7.7c-1.3,2.3-2.6,4.2-4,5.7c-1.3,1.5-2.6,2.3-3.9,2.4c1.2-2.5,2-5.1,2.5-8.1c0.5-2.9,0.7-5.6,0.5-8.2
				c-0.2-2.5-0.7-4.7-1.6-6.5c-0.9-1.8-2.2-2.9-3.9-3.2c-1.3-0.2-2.5,0.1-3.6,1c-1.1,0.9-2.1,2.1-3,3.6c-0.9,1.5-1.8,3.2-2.6,5.1
				c-0.8,1.9-1.6,3.8-2.2,5.5c0.2-2.2,0.3-4.6,0.5-7.1c0.2-2.5,0.4-5.2,0.7-8.1c2.5-1.5,5.5-3.6,8.8-6.3c3.3-2.8,6.5-5.8,9.4-9
				c2.9-3.3,5.4-6.6,7.4-10.1c2-3.5,3.1-6.6,3.1-9.3c0-3.5-0.8-6.2-2.4-8.2c-1.6-2-3.8-3-6.7-3c-3.1,0-6,1.2-8.5,3.5
				c-2.5,2.3-4.8,5.4-6.8,9.2c-2,3.8-3.7,8.1-5.2,12.8c-1.5,4.8-2.7,9.6-3.7,14.4c-1,4.8-1.8,9.5-2.4,13.9
				c-0.6,4.4-0.9,8.2-1.1,11.2c-0.1,1.1,0.2,1.9,0.8,2.5c0.6,0.6,1.3,0.9,2.1,1c0.8,0.1,1.5,0,2.3-0.4c0.8-0.4,1.3-1,1.5-2
				c0.4-1.2,1-2.7,1.7-4.7c0.8-2,1.6-3.9,2.5-5.8c0.9-1.9,1.8-3.5,2.8-4.8c0.9-1.3,1.7-2,2.4-1.9c1,0.2,1.6,1.2,1.8,3.1
				c0.2,1.9,0.2,4,0,6.3c-0.2,2.3-0.6,4.6-1,6.8c-0.5,2.2-0.8,3.6-1.2,4.3c-3.5-1.7-6.4-2.2-8.5-1.4c-2.1,0.7-3.5,2-4.2,3.7
				c-0.7,1.7-0.7,3.5,0.1,5.4c0.7,1.8,2.2,3,4.3,3.5c2.8,0.6,5.2,0.2,7.3-1.3c2.1-1.5,3.9-3.4,5.2-5.9h0.9c1.5-0.1,2.9-0.9,4.4-2.4
				c1.5-1.5,2.9-3.5,4.3-5.9c1-1.8,2.1-3.7,3-5.8c0,0.7-0.1,1.4-0.1,2c0,2,0.2,3.8,0.7,5.4c0.5,1.6,1.3,2.8,2.4,3.8
				c1.1,1,2.6,1.4,4.5,1.4c2-0.4,3.9-1.5,5.6-3.3c1.8-1.8,3.4-3.9,4.8-6.3c1.4-2.4,2.6-4.9,3.6-7.4c0.8-1.9,1.4-3.7,2-5.1
				c0.1,0.1,0.3,0.2,0.4,0.3c1,0.6,1.9,0.9,2.7,1c-0.8,2.5-1.4,4.8-1.8,6.7c-0.5,1.9-0.8,4-1,6.3c-0.2,2.3-0.2,4.4,0.1,6.3
				c0.3,1.9,1,3.5,2.2,4.8c1.2,1.3,2.9,2,5.2,2c1.5-0.3,3-1.1,4.3-2.4c1.3-1.3,2.5-2.9,3.6-4.7c1.1-1.8,2.1-3.8,3-6
				c0.7-1.6,1.2-3.1,1.8-4.6c-0.2,2.2-0.3,4.4-0.4,6.5c-0.1,3.3,0,6.2,0.4,8.8c0.4,2.5,1,4.6,1.9,6c0.9,1.5,2.1,2.2,3.6,2.2
				c2.1-0.2,4.2-1.6,6.3-4.3c2.1-2.7,4.1-5.9,5.9-9.6c1.5-3,2.8-6.1,4.1-9.2c-0.2,2-0.4,3.9-0.4,5.5c-0.1,1.1,0.2,1.9,0.8,2.5
				c0.6,0.6,1.3,0.9,2.1,0.9c0.8,0,1.6-0.2,2.4-0.7c0.8-0.5,1.3-1.3,1.7-2.4c0.5-1.5,1.1-3.5,2-5.9c0.8-2.4,1.8-4.7,3-6.9
				c1.2-2.2,2.5-4,3.9-5.6c1.5-1.5,3.1-2.3,4.8-2.2c0.4,0,0.7,0.2,0.9,0.6c0.2,0.4,0.1,1.1-0.3,2.2c-0.5,1.6-1.2,3.7-2.2,6.2
				c-1,2.5-2.1,5.3-3.1,8.2c-1,2.9-1.9,5.8-2.6,8.8c-0.7,2.9-1.1,5.5-1,7.8c0.1,1.8,0.5,3.2,1.2,4.4c0.7,1.2,1.6,2.1,2.7,2.6
				c1,0.5,2.1,0.7,3.3,0.4c1.2-0.3,2.3-1,3.3-2.1c1.5-1.7,3.1-4.1,4.6-7.2c1.5-3.1,3-6.4,4.4-9.9c0.1-0.3,0.2-0.5,0.3-0.8
				c0.4,1.2,0.9,2.2,1.5,3.2c1.1,1.5,2.4,2.3,4,2.3c0.9,0,1.9-0.6,3-1.8c1.1-1.2,2.2-2.8,3.3-4.7c1.1-1.9,2.2-4,3.2-6.4
				c1-2.3,2-4.6,2.9-6.7c-0.5,3.1-0.9,6.5-1.4,10.4c-0.5,3.9-0.7,7.5-0.7,11c0,3.5,0.4,6.4,1.3,8.7c0.8,2.3,2.4,3.5,4.6,3.5
				c1.4-0.1,2.8-0.8,4.2-2.3c1.4-1.5,2.8-3.3,4.1-5.5c1.3-2.2,2.6-4.7,3.9-7.5c1.3-2.8,2.4-5.5,3.5-8.2c0.3,0.6,0.7,1.2,1.1,1.7
				c1,1.2,2.4,1.8,4.2,1.7c1.5,0,2.8-0.7,4.1-2.2c1.3-1.5,2.5-3.3,3.6-5.4c-0.8,3.1-1.6,6.2-2.2,9.5c-0.7,3.3-1,6.2-1,8.9
				c0,2.7,0.3,4.9,1.1,6.6c0.8,1.7,2.2,2.6,4.3,2.6c1.4-0.1,2.8-0.8,4.3-2.3c1.5-1.5,2.9-3.3,4.2-5.5c1.3-2.2,2.6-4.7,3.9-7.5
				c1.2-2.8,2.4-5.5,3.5-8.2c1.1-2.7,2-5.3,2.9-7.7c0.2-0.6,0.4-1.1,0.6-1.7c0.3,0.6,0.7,1.1,1.1,1.6c1.1,1.2,2.7,1.7,4.9,1.3
				c2-0.5,3.7-1.7,5.2-3.7c1.5-2,2.8-4.4,3.9-7.1c-1,6.7-1.9,13.2-2.8,19.4c-0.8,6.3-1.7,12.7-2.5,19.3c-1.7,1.1-3.6,2.5-5.8,4.2
				c-2.2,1.7-4.2,3.7-6.1,5.9c-1.9,2.2-3.5,4.6-4.7,7.2c-1.2,2.6-1.6,5.2-1.3,7.9c0.2,1.2,0.6,2.2,1.4,2.9c0.8,0.7,2,1,3.8,0.7
				c2.5-0.3,4.8-1.4,6.8-3.2c2-1.8,3.7-4.1,5.2-6.9c1.5-2.8,2.8-6,3.9-9.6c1.1-3.6,2-7.3,2.8-11.2c4.9-4.1,9-8.9,12.2-14.6
				c3.2-5.7,6.1-11.8,8.5-18.2L342.7,250.8z M214.1,232.1c0.9-5,2.1-9.6,3.6-13.7c1.5-4.1,3.3-7.4,5.5-10c2.2-2.5,4.9-3.8,8-3.8
				c2.5,0.1,4.4,1,5.7,2.6c1.3,1.7,2,4,2,6.9c0,2.5-0.9,5.4-2.8,8.5c-1.9,3.2-4.2,6.3-7,9.3c-2.8,3.1-5.7,6-8.9,8.6
				c-3.2,2.7-6,4.8-8.4,6.3C212.5,242.1,213.2,237.1,214.1,232.1z M116.1,232.1c0.9-5,2.1-9.6,3.6-13.7c1.5-4.1,3.3-7.4,5.5-10
				c2.2-2.5,4.9-3.8,8-3.8c2.5,0.1,4.4,1,5.7,2.6c1.3,1.7,2,4,2,6.9c0,2.5-0.9,5.4-2.8,8.5c-1.9,3.2-4.2,6.3-7,9.3
				c-2.8,3.1-5.7,6-8.9,8.6c-3.2,2.7-6,4.8-8.4,6.3C114.5,242.1,115.2,237.1,116.1,232.1z M119,276.8c-0.6,0.9-1.3,1.7-2,2.4
				c-0.8,0.7-1.6,1.1-2.4,1.4c-0.8,0.3-1.7,0.4-2.6,0.2c-1.2-0.2-1.9-1-2.1-2.2c-0.3-1.3-0.1-2.5,0.6-3.6c0.7-1.2,1.9-2,3.5-2.4
				c1.7-0.5,3.8,0,6.5,1.5C120.1,275,119.6,275.9,119,276.8z M161.7,248.7c-1.6-1.2-2.7-2.4-3.2-3.8c-0.5-1.4-0.7-2.7-0.5-3.9
				c0.2-1.2,0.7-2.2,1.5-3c0.8-0.8,1.6-1.2,2.5-1.2c1.2,0,1.8,0.5,2,1.5c0.2,1,0.2,2.1-0.1,3.5c-0.2,1.3-0.6,2.6-1.1,4
				C162.4,247.1,162,248.1,161.7,248.7z M251.5,256.3c-1.2,2.8-2.3,5.4-3.6,7.8c-1.2,2.5-2.4,4.5-3.6,6.3c-1.2,1.7-2.2,2.6-3.1,2.6
				c-0.6,0-1-0.6-1.1-1.8c-0.1-1.2,0-2.7,0.3-4.6c0.3-1.8,0.9-3.8,1.7-5.9c0.8-2.1,1.7-4.1,2.9-5.9c1.2-1.8,2.6-3.2,4.1-4.4
				c1.6-1.2,3.3-1.7,5.2-1.6C253.6,251,252.6,253.5,251.5,256.3z M285.2,259.6c-1.1,1.9-2.3,3.6-3.5,5c-1.2,1.4-2.3,2.1-3.3,2.1
				c-0.7,0.1-1.1-0.3-1.1-1.2c0-0.9,0.1-2,0.5-3.3c0.4-1.3,1-2.7,1.8-4.3c0.8-1.5,1.7-3,2.8-4.4c1.1-1.4,2.3-2.5,3.6-3.5
				c1.3-0.9,2.7-1.4,4.1-1.5c-0.4,1.3-1,3-1.9,5C287.3,255.7,286.3,257.7,285.2,259.6z M315.5,297.4c-0.6,2.9-1.4,5.5-2.4,7.8
				c-1,2.3-2.1,4.2-3.5,5.7c-1.4,1.5-3.1,2.4-5.2,2.6c-1.3,0.2-2.2,0-2.8-0.5c-0.5-0.5-0.8-1.1-0.9-2c-0.2-2.3,0.2-4.6,1.3-6.9
				c1.1-2.3,2.6-4.5,4.3-6.5c1.8-2,3.6-3.9,5.6-5.5c2-1.6,3.7-2.9,5.1-3.8C316.7,291.5,316.1,294.5,315.5,297.4z"/>
		</g>
		<g>
			<path d="M174.8,294.7c-0.8-0.2-1.5-0.2-2.1-0.3c-1.4-0.1-5.2,0-4.1,1.2c0.3,0.4,0.7,0.6,0.9,0.7c0.3,0.1,0.6,0.4,0.9,0.4
				c-0.4,1-0.6,2-0.9,3c-0.1,0.6-0.4,1.1-0.5,1.8c-0.4,2.8-1.1,5.2-1.7,7.8c-0.5,2.3-1,4.3-1.6,6.3c-0.6,2.3-1.1,4.5-1.6,6.7
				c-0.2,0.7-0.3,1.4-0.7,2c-0.4-0.6-0.4-1.1-0.4-1.7l-3-15l-0.3-1.5c-0.9-2.4-1.7-1.8-4-1.8c-0.8,0-0.9,2.1-1.1,3.1
				c-0.1,0.4-0.4,1.1-0.6,1.4l-2.6,9.2c-0.9,2.4-1.8,4.8-2.7,7.3c-0.1,0.2-0.2,0.4-0.4,0.7c-0.2-0.8-0.4-1.5-0.4-2
				c0-2.3-0.3-4.4-0.4-6.7c-0.2-1.8-0.3-3.5-0.4-5.4c-0.2-2.2-0.4-4.5-0.6-6.8c-0.1-1.2-0.3-2.5-0.6-3.7c-0.1-1.4-0.3-2.7-0.5-4.2
				c0.1-0.1,0.4-0.6,0.4-0.9c0.3-0.4,0.1-1-0.4-1c-0.4-0.1-0.7-0.1-1-0.3l-4.5-0.2l-0.8-0.2c-0.4,0-0.6,0.1-0.8,0.6
				c-0.1,0.4,0.1,0.8,0.4,1c0.3,0.3,0.6,0.3,1.1,0.5c0.7,0.2,0.8,0.4,0.8,1c0,1.7,0.9,10.4,1.1,13.1c0.2,3.7,0.4,7.6,0.6,11.2
				c0.1,2,0.4,4.1,0.7,6c0.3,2.4,0.8,4.9,1.3,7.3c0.2,1.8,1.3,2.6,2.5,3.1c0.3,0.2,0.6,0,0.8-0.4c0.1-0.3,0.2-0.5,0.3-0.8
				c0.3-1.5,0.8-3,1.4-4.4c0.8-1.6,1.3-3.3,1.8-5.3c0.4-1.3,0.8-2.8,1.3-4c0.7-1.8,1.4-3.6,1.8-5.6c0.1-0.8,0.4-1.7,0.6-2.4l0.6-3.7
				c0-0.1,0.1-0.2,0.2-0.3c0.1,0.1,0.2,0.1,0.2,0.2c1.7,6.7,2.3,10.2,2.8,12.6c0.6,3.2,1.3,7.1,2.3,10.2c0.4,1.5,1.3,2.5,1.8,3
				c0.4,0.6,1.1,0.2,1.3-0.5c0.3-0.8,0.4-1.3,0.6-1.9c0.8-2.3,1.5-5.3,1.8-7.8c0.1-0.3,0.1-0.6,0.2-0.9c0.5-1.8,0.9-3.4,1.2-5
				c0.1-1.1,0.4-2.3,0.8-3.2c0.4-1.4,0.8-3,1.2-4.4c0.1-0.6,0.1-1.1,0.2-1.4c0.3-1.6,0.6-3.1,0.8-4.4c0.4-1.6,1.4-8.3,2.2-11
				c0-0.1,1.1-0.1,1.8-0.6C175.9,296,176.3,295.1,174.8,294.7z"/>
			<path d="M188.7,296.1c-0.4-0.1-0.7-0.4-1.1-0.3c-1.1-0.1-2.3-0.4-3.2-0.3c-1.4,0-2.8,0.2-4,0.4c-0.6,0-1.1,0.3-1.6,0.8
				c-0.2,0.2-0.1,0.8,0.1,0.9c0.5,0.1,0.9,0.3,1.3,0.2h1.8v2.2c-0.1,0.7-0.2,1.4-0.2,2.3c-0.2,2.5-0.3,5.1-0.4,7.5
				c0,1-0.1,1.8-0.1,2.8c-0.1,2.3-0.1,4.6-0.1,6.8c-0.1,2.8,0.1,5.6,0.1,8.5c0,1.7-0.1,3.5,0,5.1c0,0.9-0.1,1.7-0.4,2.5
				c-0.1,0.4-0.4,0.8-0.8,0.8l-1.3,0.4c-0.1,0.1-0.1,0.4,0,0.6c0.2,0.5,0.8,0.8,1.5,0.8c0.8-0.1,2.9,0.1,3.7,0.1
				c0.6-0.1,1.3,0,1.8-0.2c0.3-0.1,0.6-0.1,0.9-0.3c0.1-0.2,0.3-0.4,0.2-0.6l-0.5-0.4c-0.4-0.1-0.8,0.1-1.3-0.1
				c0.1-0.1,0.2-0.4,0.1-0.6c0.1-0.8,0.3-1.6,0.4-2.3c0.1-0.7,0-1.5-0.1-2.2l-0.1-5.6c0.1-1.2,0.1-2.3,0.1-3.5c0.1-1.5,0-3.1,0-4.6
				c0.1-1.9,0.2-3.7,0.3-5.6c0.1-1,0.1-2,0.1-3.1c0-1.4,0-2.9,0.2-4.4c0.1-0.5,0.1-1,0.1-1.3c0.1-0.5,0-0.9,0.1-1.3
				c0.1-0.6,0.1-1.2,0.1-1.8c-0.1-0.4-0.1-0.8,0-1.3c-0.1-0.9,0.1-1,1.2-1.1c0.2,0,0.4,0.1,0.6,0.1c0.1,0,0.4-0.2,0.5-0.2
				c0.4-0.1,0.6-0.8,0.3-1.1C189,296.3,188.8,296.1,188.7,296.1z"/>
			<path d="M207.7,314.9c-1.1-0.8-2.3-1.7-3.7-2.2c-0.8-0.2-1.6-0.6-2.3-1.1c-0.5-0.8-1.1-1.5-1.8-2.3c-0.1-0.2-0.3-0.4-0.3-0.6
				c-0.2-0.6-0.7-1.5-0.8-2.2c-0.4-1.4-0.3-2.9,0.4-4.4c0.4-1.3,3.3-4,6.4-3.6c0.4,0.1,0.8,0.4,1,0.4l1.5,1.6
				c0.6,0.6,1.1,3.1,1.3,3.2c1.2,0.2,1.6,0.2,2.4-0.7l-0.8-2.3c0,0-0.1-0.1-0.1-0.2c-0.4-0.8-1-1.6-1.3-2c-4.5-4.7-8.5-4.6-12.5-0.8
				c-0.4,0.4-0.8,0.8-1.1,1.1c-1.1,0.7-1.7,3.6-1.7,4.1c-0.3,2.1-1.5,5.6,3.8,10.3c0.5,0.4,1.3,0.7,1.8,1.1c0.5,0.4,1,0.6,1.3,0.9
				c1.2,0.9,2.3,1.8,3.4,2.8c0.4,0.3,0.7,0.7,0.9,1.1c0.8,1.2,1.2,2.4,1.7,4c0.3,0.8,0.3,1.8,0.3,2.9c-0.1,1.7-0.7,3.3-1,4.9
				c-0.4,1.8-1.2,3.2-2.2,4.7c-0.4,0.6-0.8,1.1-1.3,1.6c-0.4,0.4-0.8,0.5-1.4,0.4c-0.7-0.2-1.4-0.4-2.1-0.8c-2.2-1.6-3.5-6-3.4-9.7
				c0-0.3,0.3-0.5,0.4-0.7c0.3-0.7,0.2-1.1-0.6-1.3c-0.2,0-0.5-0.1-0.8-0.1c-0.9,0.1-2,0.2-3.1,0.4c-0.1,0-0.6,0.2-0.8,0.4
				c-0.2,0.1-0.2,0.8,0,0.9c0.1,0.1,0.4,0.2,0.7,0.3c0.1,0.1,0.6,0.3,0.8,0.3c0,0.3,0,0.5-0.1,0.6c-0.1,0.7-0.1,1.3-0.1,2
				c0.1,0.5,0,1.2,0,1.9c0,0.2-0.1,0.5,0.1,0.6c0.2,1.9,1.1,4.1,2.8,5.3c3.2,2.7,7.6,2.9,10.5,1.3c2-0.9,3.4-2.5,4.5-4.2
				c0.6-0.9,1-2.1,1.3-3.2c0.6-2,0.8-4,0.8-6.1c0-1.6-0.3-3-0.8-4.4C210.8,318.4,209.7,316.5,207.7,314.9z"/>
			<path d="M238.4,295.2c-0.9-0.2-1.8-0.2-2.6-0.2c-0.8,0-1.5,0.2-2.1,0.3c-0.2,0.1-0.3,0.5-0.1,0.6c0.6,0.6,1.1,1,1.8,1.4v1.7
				c-0.1,1.5-0.1,3.1-0.2,4.6c-0.1,1.5-0.5,5.1-0.6,6.6c-0.1,0.8-0.4,1.1-1.5,1.3h-0.4c-3.2,0.1-3.6,0.1-6.7,0.4h-0.6
				c-1,0-2,0.1-3,0.1c-0.4,0-0.6-0.1-0.8-0.1c-0.1-0.2-0.1-0.3-0.1-0.4c0.1-1.7,0.4-5.4,0.3-7c-0.1-0.8,0-1.3,0-2.1
				c0-1.4,0.4-3,0.3-4.6c0.4,0,1.2-0.2,1.6-0.3c0.4-0.1,1.6-0.7,1.6-1.1c0.1-0.2-0.1-0.5-0.8-0.7c-0.7-0.2-1.5-0.5-2.3-0.3
				c-1.1,0.4-2.2,0.4-3.3,0.3c-0.4,0-0.8-0.1-1.3-0.1c-0.4,0-0.6,0.1-1,0.1c-0.6,0.1-1.1,0.5-1.1,0.7c0.1,0.4,0.4,0.6,0.8,0.8
				c0.7,0.4,1,0.8,0.9,1.6c0,0.3,0.1,0.5,0,0.8c-0.1,2.3-0.2,4.5-0.4,6.8c-0.5,5.8-0.8,9.4-0.7,10.9c0.1,3.3-0.4,6.6-0.2,9.9
				c0.1,1.7,0.1,3.5,0.1,5.4c0,1.2,0.1,2.6,0.6,3.8c0.1,0.2,0,0.4,0,0.7c-0.5,0.2-1.1,0.3-1.5,0.4c-0.4,0.1-0.8,0.4-0.7,0.7
				c0.2,0.4,0.6,0.4,0.9,0.4c1.8,0.1,3.6,0.3,5.5,0.4c0.8,0,1.3-0.6,1.8-1.2c-0.6-0.8-1.6-0.5-2.5-1.2c0.1-0.4,0.1-0.7,0.3-1.1
				c0.3-1.1,0.4-2.3,0.3-3.5l0.1-5.2c0.1-1.3,0.1-2.6,0.1-4l0.2-4c0-1.3,0.2-2.5,0.3-3.7c0.1-1-0.1,0.1,0-0.8c0-0.1,0.1-0.2,0.1-0.3
				c0-0.1,0.1-0.1,0.2-0.1c1.9-0.2,3.7-0.3,5.7-0.4h4.8c0.4,0,0.8,0.1,1.3,0.1c0.3,0.1,0.4,0.3,0.5,0.6c0,0.1,0,0.4,0.1,0.6
				c-0.2,1.8-0.1,1.3-0.1,3c-0.1,0.8-0.1,1.6-0.1,2.3l-0.2,7.2c0.1,3.1-0.3,5.9,0.4,9c0,0.1-0.1,0.2-0.1,0.4
				c-0.1,0.1-0.3,0.1-0.4,0.1c-0.3,0.1-0.6,0.3-0.6,0.6c0.1,0.3,0.4,0.4,0.6,0.5c0.1,0.1,0.2,0.1,0.3,0.1c1.6,0.4,3.1,0.2,4.7,0.1
				c0.6-0.1,1.1-0.3,1.8-0.4c0.2-0.1,0.3-0.3,0.4-0.4c0.1-0.2,0.1-0.6-0.1-0.6c-0.4,0-0.6-0.1-0.8-0.2c-0.7-0.1-1.3-0.1-2-0.1
				c0-0.6,0.1-1,0.1-1.5c0-3.5,0.4-6.8,0.3-10.4c0-0.6,0.1-1.2,0.1-2c0.1-2.1,0.4-4.2,0.6-6.4c0.1-0.9-0.2,0.4-0.1-0.6
				c0.3-2,0.6-3.9,0.6-5.8c0-0.6,0.3-3.5,0.4-4.1c0.1-2.2,0.4-4.5,0.3-6.8c0-0.5-0.1-1.1,0.3-1.6l1.6-0.6c0.2-0.1,0.3-0.4,0.6-0.6
				c-0.4-0.3-0.6-0.6-0.8-0.7C240.3,295.5,239.3,295.2,238.4,295.2z"/>
			<path d="M264.6,296.2c-0.6-0.1-1.2-0.2-1.8-0.4c-0.5-0.1-0.8-0.1-1.3-0.1l-8.5-0.1c-1.1-0.1-2.1-0.1-3.1,0.1
				c-0.6,0.1-1.1,0.1-1.6,0.2c-0.9,0.1-1.8,0.4-2.7,0.5c-0.4,0.2-0.6,0.5-0.7,0.8c-0.1,0.7,0,1.4,0.3,2c0.1,0.4,0.4,0.5,0.8,0.5
				c0.4,0,0.6-0.1,0.8-0.6c0.1-0.2,0.1-0.5,0.3-0.8c0.1-0.2,0.4-0.4,0.7-0.2c0.1,0.1,0.4,0.3,0.4,0.4c0,0.6-0.1,1.3-0.1,1.9
				c0.1,1.3-0.1,2.7-0.2,4.1c-0.2,3.1-0.4,6.2-0.5,9.5c-0.1,1.8-0.1,3.6-0.2,5.4c-0.4,4.8-0.6,9.5-0.3,14.2v1.2
				c0,0.4,0.4,0.7,0.1,1.2c-0.4,0.2-0.8,0.1-1.3,0.1H244c-0.1,0-0.4,0.1-0.4,0.3c-0.1,0.3,0,0.6,0.1,0.8c0.3,0.1,0.5,0.3,0.8,0.4
				c1.5,0.6,3.1,0.8,4.7,0.8c1.6,0.1,3.3-0.1,5-0.2c0.9-0.1,1.8-0.1,2.8-0.2c0.5,0,1,0,1.5,0.1c1.6,0.2,3.2,0.1,4.7,0
				c0.4-0.1,0.6-0.1,0.8-0.4c0.4-0.4,0.7-1.1,0.8-1.8l0.2-2.3c0.1-0.6-0.1-1-0.6-1.3c-0.2-0.1-0.4-0.2-0.6-0.3
				c-0.4-0.2-0.8-0.1-0.9,0.4l-0.4,1.6c-0.1,0.5-0.4,0.8-0.8,0.8c-0.4,0.1-0.8,0.2-1.3,0.2l-2.4,0.2c-1.2,0-2.5,0.1-3.8,0.1
				c-0.6,0-1.2-0.1-1.8-0.2c-0.4-1.5-0.6-2.8-0.5-4.3c0-0.8,0.1-1.8,0.1-2.8c-0.1-3.2,0.3-6.3,0.6-9.5c0.1-0.4,0.1-0.8,0.5-1
				c0.6,0,1.3,0.2,2,0.3c0.8,0.1,1.5,0.1,2.1,0.1c0.1,0.3,0.2,0.3,0.2,0.4c0.2,1.3,1,1.9,1.9,2.5c0.6,0.5,1.1,0,1.1-0.8
				c0-0.3,0-0.6-0.1-0.9c0-1-0.1-1.9-0.2-2.8c-0.1-0.4-0.3-0.9-0.4-1.4c-0.2-0.6-0.6-0.8-1.1-1c-0.7-0.3-1.1,0.1-1.3,0.9v0.3
				c-0.1,0.3-0.3,0.6-0.4,0.6c-1.1,0.2-2.2,0.4-3.3,0.2c-0.4-0.1-0.6-0.3-0.6-0.9v-0.6c0.1-2.6,0.3-5.2,0.4-7.5
				c0.1-3,0.1-6.1-0.4-9.2c0,0,0-0.1,0.1-0.1c0.3-0.4,0.8-0.1,1.2-0.1l7.4,0.1c0.1,0,0.1,0.1,0.1,0.1c0.2,0.4,0.1,0.9,0,1.3
				c-0.4,1.1-0.1,2,0.7,2.8c0.2,0.1,0.4,0.5,0.5,0.6c0.8,1,1.6,1,2,0.1c0.1-0.1,0.1-0.3,0.1-0.5c0.1-1.2,0.3-2.5,0.5-3.7
				c0-0.2,0.1-0.4,0.1-0.8C265.6,296.9,265.2,296.4,264.6,296.2z"/>
			<path d="M285.4,314.9c-1.1-0.8-2.3-1.7-3.7-2.2c-0.8-0.2-1.6-0.6-2.3-1.1c-0.5-0.8-1.1-1.5-1.8-2.3c-0.1-0.2-0.3-0.4-0.3-0.6
				c-0.2-0.6-0.7-1.5-0.8-2.2c-0.4-1.4-0.3-2.9,0.4-4.4c0.4-1.3,3.3-4,6.4-3.6c0.4,0.1,0.8,0.4,1,0.4l1.5,1.6
				c0.6,0.6,1.1,3.1,1.3,3.2c1.2,0.2,1.6,0.2,2.4-0.7l-0.8-2.3c0,0-0.1-0.1-0.1-0.2c-0.4-0.8-1-1.6-1.3-2c-4.5-4.7-8.5-4.6-12.5-0.8
				c-0.4,0.4-0.8,0.8-1.1,1.1c-1.1,0.7-1.7,3.6-1.7,4.1c-0.3,2.1-1.5,5.6,3.8,10.3c0.5,0.4,1.3,0.7,1.8,1.1c0.5,0.4,1,0.6,1.3,0.9
				c1.2,0.9,2.3,1.8,3.4,2.8c0.4,0.3,0.7,0.7,0.9,1.1c0.8,1.2,1.2,2.4,1.7,4c0.3,0.8,0.3,1.8,0.3,2.9c-0.1,1.7-0.7,3.3-1,4.9
				c-0.4,1.8-1.2,3.2-2.2,4.7c-0.4,0.6-0.8,1.1-1.3,1.6c-0.4,0.4-0.8,0.5-1.4,0.4c-0.7-0.2-1.4-0.4-2.1-0.8c-2.2-1.6-3.5-6-3.4-9.7
				c0-0.3,0.3-0.5,0.4-0.7c0.3-0.7,0.2-1.1-0.6-1.3c-0.2,0-0.5-0.1-0.8-0.1c-0.9,0.1-2,0.2-3.1,0.4c-0.1,0-0.6,0.2-0.8,0.4
				c-0.2,0.1-0.2,0.8,0,0.9c0.1,0.1,0.4,0.2,0.7,0.3c0.1,0.1,0.6,0.3,0.8,0.3c0,0.3,0,0.5-0.1,0.6c-0.1,0.7-0.1,1.3-0.1,2
				c0.1,0.5,0,1.2,0,1.9c0,0.2-0.1,0.5,0.1,0.6c0.2,1.9,1.1,4.1,2.8,5.3c3.2,2.7,7.6,2.9,10.5,1.3c2-0.9,3.4-2.5,4.5-4.2
				c0.6-0.9,1-2.1,1.3-3.2c0.6-2,0.8-4,0.8-6.1c0-1.6-0.3-3-0.8-4.4C288.5,318.4,287.4,316.5,285.4,314.9z"/>
			<path d="M299.2,334.7c-0.6-1.5-1.1-1.9-2.6-1.9c-0.6,0-1.3,0-1.8,0.2c-1.6,0.2-2.1,1.9-1.3,3.2c0.6,1.5,1.8,1.8,3.5,2.2
				c0.2-0.2,1-0.4,1.2-0.7C299.2,337.1,299.4,335.7,299.2,334.7z"/>
		</g>
	</g>
	<g>
		<path class="st1" d="M154.7,114.7c0,0.5-0.3,0.9-0.8,0.8c0.8,1.6-1.4,0.2-1.9,0.5c-0.4,0.2-1.5,0.7-2,1c0.6,0.6,1.1,1.2,1.6,1.9
			c-1.4-0.1-4-3.4-4.6-0.2c-2.9,0.6-0.8,0.9,0.6,2.1c-1.9,1.1-3.1-2.9-5.5,0.1c-0.9,1.1,0.6,1.7,1.5,2c1,0.3,2,1.9,0.3,1.2
			c-2.3-0.9-2.4-2.8-5.2-1.9c-1.3,0.4,1.2,3.8,1.1,4.6c-2.5-0.3-0.8-4.4-4.3-4c-2.3,0.3,1,2.4,0,3.9c-0.7-1.2-0.9-3-1.9-4
			c-1.4-1.4-0.8,2.3-0.8,2.3c-0.7-0.7-1-1.5-1.8-2.3c-1-0.8-1.7,1.3-2.6-0.1c-1.4,0.9-0.9,1.6-1.7,2.6c-0.9-1.3-2,1-1.7,2.1
			c0.2,0.8,0.8,2.3,0.4,3.1c-0.4-0.6-0.6-3.1-1.5-3c-1.3,0.2-0.5,2.5-0.6,3.3c-0.6-0.9-0.4-3-2.2-1.9c-0.9,0.6-1.3,1.1-2.4,1.1
			c-2.4,0.4-1.3,3.6-1.8,5.2c-0.4-1.1,0.3-4.8-1.3-5c-1.8-0.1,0,3-2.1,3.5c0.6-0.9,1.1-2.5,0-3.2c-1.3-0.9-1.5,1-2,1.7
			c-0.2-0.4-0.4-0.9-0.6-1.4c-0.4,0.3-1.2,2.9-1.5,2.7c-1.1-0.4,0.2-2.4-1.3-2.1c-2,0.4-1.8,1.2-2.5,2.5c-0.3-0.4-0.5-0.8-0.9-1.1
			c-0.5,0.5-0.9,0.5-0.9,1.3c-0.8-0.9-3-0.5-3.4,0.3c1.6,1.4,2,2.3,4,1.1c0.4,0.8,2.5,1.7,3.3,2c2.1,0.9,2.2-0.9,2.9-2.1
			c1,1.6-0.7,2.7,2.2,3.1c1.2,0.2,1-0.7,2,0.3c0.3,0.3,0.7,0.3,1-0.2c1.2,2,1.2-1.6,1.8-2.4c0.8,1.5-0.5,3.4,1.8,3.9
			c2,0.4,2.1,0.1,3.3-1.4c-0.2,0.4-0.1,0.9,0.3,1.1c0.2-0.4,0.5-0.9,0.8-1.2c0,1.8,0.2,2.4,2.2,2.3c2.6-0.2,0.9-2.2,1.8-3.4
			c0.8,1-0.1,2.2,0.4,3.2c0.8-1.3,2.5,1,3.5-0.9c0.7-1.2-0.3-2.8,0.3-3.9l0,0l0,0c0,0.1,0.5,2.1,0.9,1.7c0.4-0.4,1.3-2.1,0.9-2.6
			c0.7,0.3,2.3,2.5,3.3,2c-0.4-1.1-0.9-2.2-1.4-3.3c0.8,1.4,2.1,4.5,4,2.7c-0.6-0.6-1.5-1.2-1.5-2.2c1.5,0.4,1.5,2.9,3.2,1.4
			c-0.6-0.3-0.6-0.7-0.2-1.1c1.2,1.2,2.3-0.6,3.1-1.4c-0.7-0.6-1.4-1.3-2-2c1.1-0.7,1.6,1.8,3,0.9c1.5-1,0.5-2,1.1-2.6
			c0.5,0.2,2.3,0.2,1.5-1c-0.5-0.7-2-0.3-2-1.6c0.8,0.7,2.7,1.5,3.6,0.5c1-1.2,1.1-2.2,1.7-3.4c1.1,1.1,1.5-0.6,0.5-1.2
			c0.4-0.4,1.6,0.3,1.6-0.4c0-0.4-0.6-1-0.5-1.3c0.9,0.3,4.4-4.2,4.6-5.6C157.5,113.1,156.5,114,154.7,114.7z"/>
		<path class="st1" d="M157.2,111.7c-0.7-1.2-1.9-1.4-3.2-1.6c-0.8-0.1-3,0-3.3-0.8c-0.3-1-1.5,0-1.6-0.2c-0.7-1.6-0.4-0.1-1.8-0.2
			c0.5-0.9-0.1-1.7-1-1.8c-0.1,0.5-0.1,1-0.2,1.5c-1-0.2-1.1-1.3-2.2-1.5c-2.2-0.5-1.7-0.2-3,1.1c0.2-1.6-1.2-2.7-2.1-1.1
			c-0.9-0.1-1.1-2.2-3.1-1.1c-0.8,0.4,1.1,2.3-1.1,2.7c0.1-1,0.2-2,0.3-3.1c-1.3-0.1-2.9,0.5-3,1.9c-0.6-0.2-0.6-0.4-0.5-1
			c-1.8-0.1-0.9,1-1.1,2.2c-0.7-0.3-0.8-1.1-0.7-1.8c-3.1-0.3-1.2,4-1.5,5.5c-0.3-1-0.6-2-1-3c-0.9,0.1-1.3,2.8-1.3,3.4
			c-0.2-0.4-1.9-1.7-2.5-1.2c-0.3,0.2,0.5,2,0.6,2.3c-1-0.5-0.9-1.9-1.8-2.6c-1-0.7-2.9-0.4-4.1-0.5c0.2,1.1,1.5,2.2,1.9,3.3
			c-1.3-0.6-1.1-2.4-2.6-2.6c-0.9-0.1-1.8,0.2-2.5,0.5c-0.8,0.4,0.8,1.4,0.9,2c-0.5-0.2-0.9-0.5-1.3-0.8c0.3,0.5,0.4,1,0.6,1.5
			c-1.2-1.5-2.8-0.2-3.2,1.1c-0.6,2,0.4,2.3,0.6,4c-1.3,0-1.3-1.4-2.1-1.5c-1.2-0.2-1.1,1.2-1.6,1.9c-0.5,0.7-1.4,0.9-1.9,1.8
			c-1.1,1.8,0.7,1.4,0.9,2.9c-1.3-0.5-2.5-1.8-3.5,0c-0.6,1.1-1.4,2.8-1.5,4c-2.1-0.3-2,1.7-2.2,3.3c0.8,0.3,2.8-0.8,2.8-1.9
			c0.4,0.6,0.8,0.4,1.5,0.4c0-0.5-0.1-0.9,0-1.4c1.4,0.6,1.7,1.3,3.6,0.4c1.4-0.7-0.9-1.4-0.3-2.4c0.2-0.4,2.3,1.2,2.9,1.1
			c-0.1-0.5-0.2-1-0.4-1.4c0.9,0.3,1.7,1.3,2.8,0.6c1.2-0.9-0.9-2.2-1.7-2.2c1.5-1.2,2.2,1.5,3.1,2.1c2.2,1.6,0-3.2,0-3.3
			c1.6,0.8,2.3,2.9,3.5,0.6c0.5-0.9,1.5-0.2,2-1.5c0.5-1.3-0.4-1.7-0.5-2.9c0.1,0.1,2.6,3.6,2.8,1.9c0.1-1.3-1.5-2.3-1.3-3.7
			c1,0.6,1.5,1.6,2.3,2.4c0.6,0.7,2.6,1.3,2.5-0.1c1.3,0.3,1.4,1.1,3,1c0-2-1.7-3.8-1.6-5.7c1.1,0.4,1.3,2.5,1.5,3.4
			c0.1,0.5,0.2,1,0.4,1.5c1-0.2,1.5,0,1.5-1.2c0.1-0.9-0.2-1,0.7-0.8c1.7,0.2,1.3-1.7,1.2-2.7c1.2,0.1,0.3,2.9,2.1,1.5
			c0.7-0.5,1.2-2.9,1.1-2.9c2.3,0.3,0.2,3.2,1.8,3.4c2.4,0.3,2.6-2.9,3.4-4.1c0.2,1.1-0.6,2.4,0.9,2.8c1.6,0.2,2.1-1.1,3.2-1.1
			c1.2-0.1,2.1,0.8,3.1-0.4c0.9-1.1,0.8-2.5,1.5-3.5c0.5,1.3-0.1,2.2,1.6,2.6c0.9,0,1.9-0.1,2.7-0.6
			C154.8,113.3,157.7,112.7,157.2,111.7z"/>
	</g>
	<path class="st1" d="M248.7,180.5c0.3,0,0.5,0,0.8,0c2,0.3,3.5,1.9,4.5,3.7c1-1.8,2.9-3.9,4.7-4.1c0.8-0.1,1.6,0.2,2.4,1.1
		c1.4,1.6,1.4,4.4,0.8,6.4c-0.1,0.4-0.3,0.8-0.5,1.2c0,0.1-0.1,0.2-0.1,0.3c-1.6,3-4.7,4.9-6.2,8c-0.1,0.1-0.2,0.2-0.4,0.2
		c-0.3,0-0.7-0.1-0.8-0.3c-1.7-2.8-4.9-4.7-6.7-7.3c-0.3-0.4-0.5-0.8-0.7-1.3c-0.3-0.7-0.5-1.5-0.6-2.4
		C245.9,183.8,246.3,180.8,248.7,180.5z"/>
	<path class="st0" d="M272.3,351.2c-0.4-1.9-1.2-3.4-2.7-4.8c-1.6-1.5-3.7-1.8-5.6-2.7c-1.3-0.6-2.7-0.7-4.2-0.6
		c-2.9,0.3-5.3,1.6-7.5,3.4c-1.1,0.9-2,1.1-3.5,0.6c-5.7-2.2-11.5-2.7-17.2,0c-0.5,0.2-0.9,0.3-1.4,0c-2.8-1.9-5.8-2.9-9.3-2.3
		c-1.5,0.2-2.8,0.5-3.9,1.7c-2.1,2.1-3.6,4.7-4.9,7.3c-0.9,1.8-1.6,3.6-2.9,5.1c-2.8,3-7.5,3.4-10.7,0.7c-3-2.5-5.1-5.7-7.5-8.6
		c-1.8-2.2-3.6-4.2-6.2-5.5c-5.5-2.6-10.5-1.2-15.4,1.7c-1.6,0.9-2.6,2.5-3.3,4.2c-0.8,2.1-1,4.3,0.7,6.1c0.9,1,1.5,0.8,1.8-0.4
		c0.2-0.9,0.3-1.8,0.2-2.8c-0.1-0.7,0-1.4,0.3-2.1c1.5-2.5,3.6-4,6.6-4.3c5.2-0.5,9.6,1.5,13.4,4.9c3.4,3,6.3,6.3,9.7,9.3
		c3.1,2.7,6.6,3.5,10.5,2.9c2.2-0.3,3.8-1.5,4.8-3.6c0.7-1.5,1.3-3,1.8-4.6c1-3.1,2.4-6,4.2-8.7c0.6-1,1.5-1.7,2.7-1.6
		c1.7,0.1,3.3,0.7,4.7,1.7c0.8,0.5,1,1,0.2,1.8c-1.2,1-2.1,2.3-2.8,3.7c-1.9,3.7-0.8,8.9,2.6,11.3c2.4,1.7,6.5,1.3,8.1-0.9
		c1.4-2,1.8-4.2,1.5-6.5c-0.3-2.1-1.1-4-2.2-5.8c-0.5-0.7-0.5-1.2,0.3-1.7c2.6-1.8,5.5-2.6,8.7-2.6c1.3,0.1,2.6,0.4,3.9,0.8
		c1.3,0.4,1.3,0.8,0.5,1.8c-2.2,2.9-3.5,6.2-2.9,9.9c0.4,2.7,1.1,5.2,3.9,6.6c2.7,1.4,6.8,0,7.7-3c0.7-2.1,0.7-4.2,0.1-6.3
		c-0.7-2.4-1.7-4.7-3.1-6.8c-0.4-0.7-0.5-1.2,0.1-1.7c1.7-1.4,3.3-2.8,5.6-3.1c3.4-0.5,6.6-0.3,9,2.5c1.5,1.7,1.7,3.8,0.7,5.6
		c-0.5,0.8-2,1.1-2.9,0.5c-0.9-0.5-0.7-1.2-0.2-1.9c0.1-0.2,0.2-0.4,0.2-0.6c0.1-0.6,0.2-1.2-0.5-1.4c-0.6-0.2-1.3-0.3-1.8,0.4
		c-1.1,1.6-0.1,5,1.7,5.5c1.5,0.4,3.2,0.5,4.5-0.6C272.1,354.6,272.7,353,272.3,351.2z M167.2,355.5c-0.2,0-0.2-0.3-0.2-0.5
		c0-0.3,0-0.5-0.1-0.8c0-0.3,0-0.8,0.3-0.8c0.4,0.1,0,0.5,0.1,0.8c0.1,0.3,0.1,0.5,0.1,0.8C167.4,355.2,167.4,355.5,167.2,355.5z
		 M187.9,349.5c-2.7-2.1-6-2.7-9.1-3.6c-0.3-0.1-0.7,0.1-0.8-0.3c0.3,0,0.5-0.1,0.8-0.1c0.5,0,1,0,1.5-0.1c3,0.4,5.6,1.5,7.7,3.7
		c0.1,0.1,0.3,0.4,0.3,0.5C188.2,349.8,188,349.6,187.9,349.5z M218.4,348.7c-1.3,2.6-2.5,5.2-3.4,8c-0.4,1.2-0.9,2.2-1.4,3.3
		c-1.4,3-4,3.8-7,3.8c-0.3-0.1-0.7,0.1-0.8-0.3c-0.1-0.6,0.4-0.6,0.7-0.7c2.9-1.1,4.9-3.3,6-6.1c0.9-2.1,2-4,3.1-6
		c0.6-1,1.3-1.9,2.2-2.7c0.2-0.2,0.8-0.5,0.8-0.5C218.9,348,218.6,348.3,218.4,348.7z M227.1,357.9c-0.1,0.2-0.1,0.4-0.2,0.6
		c-0.3,0.5-0.1,1.3-0.5,1.8c-0.7-0.6-0.7-1.4-0.7-2.2c0-0.2,0-0.4,0-0.7c0.2-2.8,1.8-4.8,3.7-6.7c0.3-0.3,0.7-0.7,1.3-0.2
		c0.5,0.5,0.5,1,0,1.5C229.2,353.9,227.9,355.8,227.1,357.9z M235.3,359.3c0,3.2-2.5,5.3-5.4,4.7c-1.3-0.3-2-1-2.1-2.3
		c-0.1-2,0.8-3.7,1.6-5.4c0.6-1.1,1.4-2.1,2.2-3.1c0.5-0.6,0.8-0.5,1.3,0.1C234.3,355,235.5,356.9,235.3,359.3z M237,347.4
		c-1,0.6-2.1,1.2-3.1,1.7c-0.3,0.2-0.6,0-0.9-0.3c-0.3-0.4,0-0.6,0.3-0.8c1.1-0.6,2.4-0.8,3.6-1.1c0.1,0,0.2,0,0.3,0.1
		C237.1,347.2,237.1,347.4,237,347.4z M248.4,362.3c0,0.2,0.2,0.6-0.2,0.6c-0.1,0-0.3-0.3-0.4-0.4c-0.5-1.2-0.8-2.5-0.9-3.5
		c0.4-3.3,1.1-6.2,3.5-8.3c0.2-0.2,0.4-0.6,0.8-0.4c0.3,0.2,0,0.5-0.2,0.7C249.3,354.6,248.1,358.2,248.4,362.3z M256.1,360.2
		c-0.1,3-1,4.4-3.3,4.9c-1.6,0.4-2.7-0.2-3-1.7c-0.8-4.1,0.5-7.8,2.4-11.4c0.3-0.7,0.7-0.5,1.1,0.1
		C254.8,354.5,256.3,357,256.1,360.2z"/>
	<path class="st0" d="M312.3,146c-1.4,0.7-2.5,1.6-3.3,3c-0.9,1.6-0.7,3.3-1.1,4.9c-0.3,1.2-0.1,2.3,0.3,3.4
		c0.8,2.3,2.3,3.9,4.1,5.3c0.9,0.7,1.3,1.4,1.1,2.7c-0.7,5,0,9.6,3.2,13.7c0.3,0.3,0.4,0.7,0.2,1.1c-1,2.6-1.2,5.1-0.1,7.8
		c0.5,1.2,1,2.2,2.1,2.8c2.1,1.3,4.4,2,6.8,2.5c1.6,0.3,3.2,0.6,4.6,1.4c3,1.6,4.1,5.4,2.6,8.4c-1.4,2.8-3.6,5.1-5.5,7.6
		c-1.4,1.8-2.7,3.6-3.2,6c-1.1,4.9,1,8.6,4.2,12c1.1,1.1,2.5,1.6,4,1.8c1.9,0.2,3.6,0,4.8-1.7c0.6-0.9,0.4-1.3-0.7-1.3
		c-0.8,0-1.5,0.1-2.2,0.4c-0.6,0.2-1.1,0.3-1.7,0.1c-2.3-0.7-3.9-2.2-4.7-4.4c-1.4-4.1-0.6-7.9,1.4-11.6c1.7-3.2,3.9-6.2,5.6-9.5
		c1.5-3,1.5-5.9,0.3-8.9c-0.7-1.7-1.9-2.8-3.8-3.1c-1.3-0.3-2.6-0.5-4-0.6c-2.6-0.2-5.2-0.8-7.7-1.7c-0.9-0.3-1.6-0.9-1.8-1.8
		c-0.2-1.4-0.1-2.8,0.4-4.1c0.3-0.7,0.6-1,1.4-0.5c1.1,0.8,2.2,1.2,3.5,1.5c3.3,0.8,7.2-1.1,8.6-4.2c0.9-2.2-0.2-5.4-2.2-6.3
		c-1.8-0.8-3.7-0.7-5.5,0c-1.6,0.6-3,1.7-4.2,2.9c-0.5,0.5-0.8,0.6-1.4,0.1c-1.9-1.7-3.1-3.9-3.8-6.5c-0.2-1-0.1-2.1-0.1-3.3
		c0.1-1.1,0.4-1.2,1.4-0.8c2.7,1.2,5.6,1.6,8.5,0.5c2.1-0.8,3.9-1.9,4.5-4.4c0.6-2.4-1.3-5.4-3.8-5.6c-1.8-0.1-3.5,0.2-5.1,1.1
		c-1.8,1-3.4,2.3-4.9,3.8c-0.4,0.5-0.8,0.6-1.4,0.2c-1.5-1-2.9-2.1-3.6-3.9c-1-2.6-1.5-5.2,0.3-7.7c1.1-1.5,2.7-2.1,4.3-1.6
		c0.7,0.2,1.3,1.4,1,2.2c-0.3,0.8-0.8,0.8-1.5,0.5c-0.2-0.1-0.4-0.1-0.5-0.1c-0.5,0-1,0-1,0.6c0,0.5,0,1.1,0.7,1.3
		c1.4,0.6,4-0.8,4-2.4c0.1-1.3-0.2-2.7-1.3-3.5C315.1,145.5,313.7,145.3,312.3,146z M335.6,229.1c0,0.2-0.2,0.2-0.4,0.3
		c-0.2,0.1-0.4,0.1-0.6,0.2c-0.3,0.1-0.7,0.1-0.7-0.1c0-0.3,0.4-0.1,0.6-0.2c0.2-0.1,0.4-0.2,0.6-0.3
		C335.3,228.9,335.5,228.9,335.6,229.1z M327,213.7c-1.1,2.5-1,5.3-1.2,8c0,0.2,0.2,0.5-0.1,0.7c-0.1-0.2-0.2-0.4-0.2-0.6
		c-0.1-0.4-0.2-0.8-0.3-1.2c-0.3-2.5,0.2-4.8,1.5-6.9c0.1-0.1,0.2-0.3,0.3-0.3C327.1,213.3,327,213.5,327,213.7z M320.5,189.5
		c2.3,0.5,4.6,1,7,1.2c1,0.1,1.9,0.3,2.9,0.5c2.7,0.5,3.8,2.5,4.4,4.9c0,0.2,0.2,0.6-0.1,0.7c-0.4,0.2-0.5-0.2-0.7-0.5
		c-1.5-2.1-3.5-3.3-6-3.7c-1.8-0.3-3.6-0.9-5.3-1.3c-0.9-0.3-1.8-0.6-2.5-1.2c-0.2-0.2-0.5-0.5-0.5-0.6
		C319.9,189.2,320.2,189.4,320.5,189.5z M326.3,180.8c0.2,0,0.4,0,0.5,0.1c0.5,0.2,1-0.2,1.5,0.1c-0.4,0.6-1,0.8-1.7,1
		c-0.2,0.1-0.4,0.1-0.5,0.1c-2.3,0.4-4.2-0.5-6-1.7c-0.3-0.2-0.7-0.5-0.4-1c0.3-0.5,0.7-0.6,1.2-0.3
		C322.6,179.9,324.4,180.5,326.3,180.8z M325.8,174c2.6-0.6,4.7,1,4.8,3.4c0,1.1-0.4,1.8-1.5,2.1c-1.6,0.5-3.1,0.1-4.6-0.3
		c-1-0.2-1.9-0.7-2.9-1.2c-0.6-0.3-0.6-0.6-0.2-1C322.6,175.6,323.9,174.3,325.8,174z M316,174.9c0.7,0.7,1.3,1.4,1.9,2.2
		c0.2,0.2,0.2,0.5,0,0.7c-0.3,0.3-0.5,0.1-0.7-0.1c-0.7-0.8-1.1-1.7-1.5-2.6c0-0.1,0-0.2,0-0.3C315.8,174.8,316,174.8,316,174.9z
		 M325.7,163c0.2-0.1,0.4-0.3,0.5,0.1c0,0.1-0.1,0.3-0.3,0.4c-0.9,0.7-1.8,1.1-2.6,1.4c-2.7,0.3-5.1,0.2-7.3-1.3
		c-0.2-0.1-0.6-0.2-0.5-0.5c0.1-0.3,0.4-0.1,0.6,0C319.4,163.7,322.6,164,325.7,163z M322.6,157.2c2.4-0.5,3.7,0,4.5,1.7
		c0.6,1.2,0.4,2.2-0.8,2.7c-3.1,1.4-6.3,1.1-9.5,0.3c-0.6-0.2-0.5-0.5-0.1-0.9C318.3,159.3,320.1,157.6,322.6,157.2z"/>
	<path class="st0" d="M111.4,293.3c-2.4,0.8-4.7,2.1-7.1,3.1c0,0.2-0.2,0.1-0.3,0c-0.6-0.1-2.1-1.4-2.7-2c-1-0.6-1.8-1.6-2.5-2.4
		c-1.7-1.7-3.3-3.7-4.6-5.8c-2.4-3.9-4.5-9.1-2.6-13.5c0.3-0.8,0.8-1.4,1.5-1.7c-0.3,0.5-0.1,1.1,0.4,1.4c0.4,0.4,1.1,0.4,1.5,0.4
		c1-0.1,1.8-0.9,1.8-1.7c-0.1-2-2.4-3-4.1-2.6c-1.3,0.3-2.5,1.3-3.2,2.5c-1.1,1.7-1.6,3.8-1.5,6.2c0.2,6.5,4.8,12.2,9.1,16.4
		c0.6,0.6,5.1,5,5.9,4.5c-1.4,1.2-2.6,2.7-3.6,4.2c-1.7,2.7-2.8,6-1.9,9.2c0.3,1.2,1.2,3.5,2.4,4.1c1.2,0.6,3-0.6,3.9-1.3
		c2.3-1.8,3.7-4.6,4-7.5c0.1-1.5,0.2-3.1-0.1-4.4c-0.2-1.1-0.6-2.7-1.3-3.7c-0.1-0.1,2.8-1.9,3.3-2c1.5-0.5,3.1-0.6,4.5-0.7
		c3.1-0.1,6.3,0.5,9,2.1c4.7,2.8,10.5,9.5,8,15.4c-0.9,2-2.6,3.8-4.6,4.4c-1.6,0.6-3.2,0.6-4.8,0.3c-1.5-0.3-2.4-1.3-3.5-2.2
		c-0.6-0.5-1.1-1.2-1.2-2c-0.2-0.7,0.1-1.6,0.8-2c0.3-0.2,0.8-0.5,1.2-0.5c-0.2,1,1,1.9,1.9,1.7c1.5-0.4,1.8-2.6,0.6-3.3
		c-1.2-0.8-3.4-0.5-4.4,0.1c-1.9,1-2.8,3.1-2.2,5.1c0.4,1,1,1.9,1.7,2.6c4.2,4,10.5,4.3,14.4-0.2c3.2-3.5,4.4-8.9,2.9-13.3
		c-0.8-2.3-2.1-4.3-3.8-5.9C125.5,293.9,117.7,291.4,111.4,293.3 M123.6,296.8c0.3,0.1,0.7,0.2,1,0.3c4.9,1.8,8.4,6,8.5,10.9
		C132,303.2,128.1,299.2,123.6,296.8z M101,313.2c-0.6,0-1.1-2.9-1.1-3.4c-0.1-1.2,0.1-1.9,0.6-2.9c1-2.6,2.3-4.8,4.4-6.8
		c1,1.5,1.5,3.1,1.3,5c-0.2,2.7-1.8,7.7-5.1,8.1C101,313.3,101,313.2,101,313.2z"/>
</g>
</svg>
