<svg version="1" xmlns="http://www.w3.org/2000/svg" width="738.667" height="738.667" viewBox="0 0 554.000000 554.000000" style=""><path d="M123.9 100.9c-2.2 1.8-2.4 2.7-2.7 13.8-.4 14.2.1 15.2 7.8 16.1l5.5.7.8 4.7c.5 2.6.5 7.5 0 11-.7 5.7-1 6.3-3.3 6.6-1.4.2-2.9.8-3.5 1.3-2 2-29.2.2-33.5-2.1-.8-.5-5.8-9.2-11-19.4s-9.8-18.2-10.1-17.8c-.4.4-3.6 7.5-7.3 15.7-8.2 18.6-9.7 21.1-13.9 23.1-1.8.9-10.2 3-18.7 4.7-9.1 1.9-15.5 3.7-15.8 4.5-.2.7 6 7.6 13.7 15.3C44.5 191.6 46 193.5 46 196.5c0 5.2-3.9 30.4-5 32.5-.8 1.4-2.5 1.9-9 2.2-5.8.2-8.4.7-9 1.8-1.1 1.8-1.3 27-.2 28.7.4.6 2.7 1.3 5.2 1.5 6.9.5 7 1.1 7.3 33 .2 31.5.2 31.8-6.7 31.8-2.5 0-4.8.6-5.5 1.4-.7.9-1.2 5.9-1.2 13.7-.1 15.9-.1 15.9 14.6 15.9 12.3 0 13.5-.3 13.5-4 0-4.1 1.1-9 2.1-9 .4 0 3.3 2.2 6.5 5 9.9 8.7 21.6 11.2 32.7 7 6.3-2.4 10.8-6.7 13.7-13.3 1.2-2.7 2.7-4.6 3.3-4.4.7.2 1.8 2.1 2.5 4.3 2 6.2 2.6 6.4 22.1 6.5 21.5 0 25.5.6 25.9 3.7.2 1.2 1.1 2.6 2 3.1.9.5 8 1.1 15.7 1.3 22.6.8 25.1 2.8 24.8 19.7-.1 5.7 0 10.8.3 11.3s3.9-.9 7.9-3.2c4.1-2.2 8.7-4 10.4-4 1.6 0 6.7 1.8 11.2 4 4.5 2.2 8.5 3.8 8.7 3.5.3-.2-.2-3-1.1-6.2-3.7-14-3.3-15.9 5.8-26.6 3.4-3.9 5.4-7.1 4.9-7.6s-4.4-1.1-8.6-1.3c-9.9-.4-12-2-17.8-13.1-2.5-4.8-4.7-8.7-5-8.7-.3 0-1.7 3-3.3 6.8-5.4 13.2-6.4 14.4-13.2 15.8-3.3.6-6.4.8-6.8.4-.5-.4-1.1-5.4-1.4-11-.4-6.1-1-10.3-1.7-10.5-.6-.2-2.3-.6-3.7-.9-4.2-.9-5.5-5.4-4-13 2.4-11.4 8.6-19.8 15.7-21.2 4.5-.8 5.3 0 2.7 2.9-3.2 3.5-4.3 6.2-4.3 10.9.1 6.9 4.5 10.8 12.3 10.8 4 0 5.4-.5 7.7-2.8 2.9-2.9 3.3-4.4 4.7-16.6.8-6.9 2.4-9.4 3.8-5.9.3 1 1.5 7.2 2.5 13.8 2.1 13.1 3.7 18.7 7.6 25.3 2.8 4.8 8.6 8.1 14 8.2 3.9 0 4.4 1.1 4.4 10 0 10.8 1.4 11.4 24.3 10.8 19.5-.4 18.8.2 18.5-17.2l-.3-13.1-2.5-.3c-5.7-.8-7.3-5.3-4.8-13.4 1.3-4.6 7.7-12.2 12-14.4 7.3-3.8 12.2 3.5 12.3 18.1v8l-3.7 1.7-3.8 1.8v12.3c0 16.6-.5 16.1 15.2 16.5 7 .2 13.5-.1 15.1-.7 2.4-1 2.7-1.5 2.7-6 0-5.3.7-8.1 2-8.1.5 0 2.9 1.8 5.4 4 5.4 4.6 10.1 5.8 16.6 4.1 4.8-1.2 13.1-6.4 17-10.6 1.3-1.4 2.7-2.5 3.2-2.5.4 0 .8 2.4.8 5.4 0 7.8 1.1 8.6 12.3 8.6 10.1 0 16.2 1.3 17.1 3.5.9 2.5 8.4 5.6 14.9 6.1 6 .5 9.8-.2 18.2-3.6 2.7-1.1 3.7-1 8.8 1.4 3.2 1.4 6.2 2.6 6.7 2.6.6 0 1 2.9 1 6.5 0 6.3.1 6.6 3.3 8.6 2.7 1.7 4.3 2 10.8 1.6 19.1-1.2 26.6-11.6 40-56 7.8-25.7 8.5-27.2 14.1-28.1 6.7-1.1 6.8-1.4 6.8-15 0-16.6.4-16.1-14.9-16.1-16.1 0-15.6-.4-15.5 16.2.1 10.4.5 12.9 1.8 13.8 2.3 1.7 2 5.5-1.3 17.3-4.4 15.7-5.2 15.8-9.7 1.2-3.1-9.8-4.2-17-2.6-17 .6 0 1.8-.7 2.6-1.6 1.3-1.2 1.6-3.9 1.6-12.7 0-6.2-.3-12.2-.6-13.4-.9-3.4-6.3-4.5-18.8-4.1-14.3.4-14.6.7-14.6 16 0 6 .4 11.7 1 12.7.6 1.2 2.6 2.1 5.4 2.5 2.4.4 5.1 1.5 6.1 2.6 2.3 2.5 15.5 41.5 15.5 45.7 0 2.7-.6 3.7-3.1 5.2-4.1 2.5-9.4 3.4-11.9 2.1-3.3-1.8-4.9-5.2-5.7-12.4-.8-7.2-1.4-8-6.6-9.1-4-.8-5.4-4.8-6.4-19.2-.8-10.5-1.4-13.1-3.9-18-5.4-10.5-15.6-14.2-27.9-10-11 3.7-16.9 11.7-17 22.9 0 10.1 4.4 14.7 12 12.6 4.3-1.1 6.5-4.3 6.5-9.3 0-5-2.8-9.2-6.6-9.7-3.7-.5-3.4-2.1 1-4.2 8.5-4.2 18.8-2.7 20.2 2.9 1.9 7.6-4.6 16.4-18.3 24.6-4.8 2.9-10.4 7-12.5 9.1L411 337v-5.6c0-7.4-1.2-9.4-5.6-9.4-2.8 0-3.6-.5-4.5-2.7-.6-1.7-.9-13.1-.7-30.6.3-31.5.1-30.7 8.4-30.7 3.2 0 4.5-.5 5.6-2.2 1.2-1.8 3.1-2.5 9.4-3.4 4.4-.6 9.7-1.9 11.9-3 5.8-2.7 12.8-10.5 17.5-19.4 2.2-4.4 4.5-8.2 5.1-8.6 1.3-.8 10.5 7.9 12.6 12 1.5 2.9 1.4 8.5-.4 19.8-.8 5.5 1.1 5.6 10.3.3 4.3-2.4 9.1-4.5 10.7-4.5 1.5 0 6.8 2 11.7 4.5 7.1 3.6 9.2 4.2 9.6 3.1.3-.8-.2-5.2-1-9.8-2.6-13.6-2.4-14.5 4-21.9 6.9-7.9 8.7-10.6 8-11.7-.3-.5-4-1.2-8.2-1.5-4.1-.4-9-1.4-10.8-2.2-3.3-1.6-7.4-7.2-12-16.3-1.5-3-3-5.1-3.4-4.7-.4.3-2.9 5.2-5.7 10.8-5.6 11.5-7.9 13.3-17 13.9-4.5.3-5 .1-5.3-1.9-.3-2.3 6.5-27.7 10-37.1 2.2-5.8 4.2-7.2 10.4-7.2 4.8 0 5.7-2.8 5.2-16.2-.4-14.4-.3-14.3-15.4-14.3s-15.4.3-15.4 15c0 5.6.6 12.2 1.3 14.6.8 2.4 1.2 4.9 1.1 5.4-.1.6-1.7 7.2-3.4 14.7-2 8.5-3.7 13.8-4.5 13.8-1.4 0-9-29.3-8.1-31.5.3-.8 1.2-1.5 2-1.5 2.1 0 2.9-5.1 2.4-16.9-.4-13.4-.2-13.3-16-13.8-7.9-.3-13.1-1-14.5-1.9-1.2-.7-3.6-4.1-5.4-7.5-8.9-16.6-23.4-18-38.6-3.6-2.9 2.7-5.6 4.7-6 4.3-.4-.3-.9-3.4-1.1-6.7-.4-5.3-.8-6.2-2.9-7-3.2-1.2-21.5-1.2-24.7.1-2.3.9-2.6 1.5-2.6 6.2 0 8-.7 8.6-7.5 6-10-3.8-14.9-2.6-25 6.3-3.4 3-6.5 5.1-6.9 4.8-.3-.3-.6-2.7-.6-5.3 0-2.5-.5-5.1-1.2-5.8-.8-.8-4.7-1.2-10.9-1.2-12.5 0-12.9.3-13 11.3-.2 18.1-.1 18.4 5.3 20.1 4.2 1.4 6 4.9 5.4 10.6-.5 5.3-3.3 8-8.3 8-4.1 0-6.9-1.3-8.3-4.1-.6-1.1-1.5-7.8-2-15-1-15.6-3.5-22.2-10.2-26.6-9.7-6.5-27.3-2.1-35 8.6-6.1 8.6-5.9 19.2.5 23.1 4.7 2.9 9.3 2.6 12.8-.9 5.2-5.2 3.4-12.8-3.6-15.1-1.9-.6-3.5-1.5-3.5-2 0-1.1 8.2-5 10.5-5 3.7 0 10.2 4 12 7.4 3.6 6.7-.2 11.8-15.8 21-9.6 5.6-16.3 11.8-17.1 15.8-.3 1.3-.8 4.4-1.1 7l-.6 4.8H207c-2.9 0-4.2-.5-5-1.9-1.3-2.5-1.4-55-.1-58.4.8-2 1.8-2.5 6.2-3 2.9-.4 5.6-1.2 6.1-1.9.4-.7.8-6.7.8-13.4 0-16.7 1-15.8-18.7-16.2-21.4-.4-20.8-.9-20.8 16.2 0 8.4.4 12.9 1.2 13.7.7.7 2.9 1.5 5 1.8l3.8.6.3 9c.4 12.5.2 12.7-13.1 13.3-12.1.5-19-.3-21.2-2.4-1.1-1.1-1.5-3.7-1.5-9.4 0-10 .4-11 4.5-11 6.1 0 6.9-1.8 6.1-14.9-.4-6.3-1.1-12.2-1.7-13.2-1.4-2.8-7.3-3.9-20.5-3.9-10.5 0-12.5.3-14.5 1.9zm270.3 37.7c3.4 1 5.2 5.5 5.2 13.4.1 18-8 24.5-21.1 17-5.6-3.2-9.7-7.9-10.8-12.1-.8-3.4 1.3-7.6 6.3-12.5 6.6-6.5 12-8 20.4-5.8zm-43.9 11.9c.4 2.2.7 15.7.5 30.1-.3 28.4-.5 29.4-5.9 29.4-1.8 0-3.2.7-3.9 1.9-1.3 2.4-1.3 23.1-.1 26.4 1.5 3.9 5.9 4.8 19.4 4.1 16.7-1 16.8-1.1 17.5-17.2.5-13.7 0-15.2-5.4-15.2-4.5 0-5.4-2.4-5.4-13.5 0-12.5.7-13.5 6.9-8.6 8.4 6.6 16.4 7.7 25 3.5 5.2-2.6 10.2-8.1 12.2-13.3 3.7-9.6 12-11.8 15.8-4.2 2.2 4.2 12.6 35.9 13.6 41.3.6 3.2.4 3.8-2 5.4-1.4.9-4.7 1.9-7.3 2.1-4 .4-5.4 0-9.2-2.6-2.5-1.7-5-3.1-5.6-3.1-1.3 0-2.4 2.3-2.4 5s-2.3 3.2-16.5 3.9l-13 .6-.2 27c-.2 14.8-.6 28.1-.9 29.4-.5 2.4-.6 2.3-4.7-1.7-7.6-7.5-15.3-9-24.2-4.8-6.1 2.9-11.5 8.4-14.8 15.1-3.4 6.7-4.4 11.2-5.2 22.4-.3 5.2-.9 9.9-1.2 10.5-1 1.5-2.1-2.3-2.2-7.1-.1-6.5-2.7-18.6-5.2-23.7-3-6.6-7.6-11.1-12.6-12.6-3.7-1.1-4.9-1.1-8.9.5-2.6 1-6.4 3.3-8.4 5.1-2.1 1.9-4.2 3.4-4.8 3.4-2.6 0-2.8-38.1-.2-42.9.8-1.7 2-2.1 5.8-2.1 7.4 0 8.6-1.4 9-10.4.2-4.2.1-9.2-.2-11.1-.6-3.1-1.1-3.5-3.7-3.5-6.5 0-6.9-.9-6.9-13.5 0-6.2.4-11.6.9-11.9.4-.3 2.6 1 4.7 2.8 12 10.2 24.3 10 33.8-.5 7.6-8.5 10.6-19.1 10.6-37.9 0-6.4.3-12 .7-12.4 1.7-1.6 3.8.2 4.6 3.9zm-270.2 3.8c1.7 3.4 4.2 7.6 5.5 9.3 2.2 3 2.7 3.2 10.4 3.6 5.5.3 8.6 1 9.6 2 1.4 1.4 1 2.2-3.9 8-8.2 9.7-8.1 9.5-6.1 20.4 2.2 12.5 1.7 13-8.1 8.1-4.2-2-8.7-3.7-10.2-3.7s-5.7 1.8-9.4 4c-10.2 6.1-10.2 6.1-9.4-7l.8-11-7.4-7.6c-8.5-8.7-8.4-9.2 2.4-11.4 9.6-1.9 11.2-3 15.3-11.8 5.8-12.3 5.8-12.3 10.5-2.9zm242.8-3.7c3.2 2.3 5.1 7.4 5.1 13.9 0 10.5-5.4 18.5-12.4 18.5-9 0-19.6-8.8-19.6-16.2 0-6.6 4.9-13.1 12.5-16.4 4.2-1.9 11.6-1.7 14.4.2zm-75.5 17.5c-.3 9.7-3.8 15.9-9 15.9-3.3 0-6.4-2.6-6.4-5.3 0-3.5 11.8-15.3 14.4-14.4.6.2 1.1 1.9 1 3.8zM134 172c1.1.7 1.4 3.2 1.5 10.4 0 5.2-.4 9.9-1 10.5-.5.5-3.6 1.1-6.9 1.4-3.2.3-6.3 1-6.9 1.6-1.4 1.4-2.2 20.1-1.3 26.6.7 4.1 1 4.5 3.5 4.5 1.6 0 3.3.6 3.9 1.2.5.7 1.2 6.3 1.4 12.5.2 6.4.8 11.7 1.4 12.3 1.4 1.4 12.3 1.5 13.7.1.6-.6 1.2-6.1 1.5-12.3.5-13.2.9-13.8 8.9-13.8 4.9 0 5.4-.2 6.4-2.8 1.1-2.9.9-27.6-.3-28.7-.4-.4-2.2-1-4-1.4l-3.3-.7-.3-9c-.4-13-.5-12.9 15.6-12.9 16.7 0 16.4-.2 16 12.4l-.3 9.6-3.5.5c-6 1-6 1-6 15.3 0 7.3.4 13.7.8 14.3 1.8 2.8 5.6 3.4 20.4 3.4 19.5 0 19.8-.2 19.8-10.3 0-9.7.6-10.4 6.5-8.7 7.4 2.1 15.2 1.6 22.6-1.4 7.7-3.1 8.6-3.1 11.1-.9 1.5 1.3 4.3 1.8 11.9 2.1 11.1.5 12.4 1.3 11.4 7.4-.7 3.6-1.9 4.8-5.2 4.8-2.5 0-4.3 2.7-4.3 6.5 0 1.5-1.1 3.6-2.6 5-3.5 3.3-4.7 9.8-3.5 19.5 1.2 9.2 2.1 11.8 5.5 14.9 4 3.8 5.1 11 5 33.1-.1 21.1-1.2 28.2-4.9 28.9-3.5.6-4.5-2.6-4.5-15.1 0-6.5-.4-11.8-.9-11.8s-2.1 1.6-3.5 3.5c-6.4 8.3-12.7 8.1-14.5-.5-2-9.4-1.2-11 5.6-11 5.7 0 6.3-1.6 6.3-17.3 0-15.1-.8-17.1-6.8-17.5-5.7-.4-6.2-2-6.2-18.5 0-7.3-.4-13.8-.9-14.5-.5-.8-2.2-1.2-4.2-1l-3.4.3-.7 7.5c-1.2 12.8-5.7 22-12.4 25.6-4.6 2.4-5.4 4.6-5.4 14.9 0 4.6-.4 8.6-.8 8.9-.5.3-2.6-.1-4.8-.9-8.1-2.9-14.9-1.5-21.8 4.5-4 3.6-5.3 3.3-5.8-1.5l-.3-3-10-.3c-13.1-.4-14.2-.1-15.6 4.7-1.1 3.8-1 25.4.2 26.6.4.3 2.6.9 5 1.3 4.4.7 4.4.8 4.7 5.2.2 3.5-.2 5-1.8 6.8-3.2 3.4-6.1 2.7-7.9-2.1-1.1-2.9-4.5-4.7-9.1-4.7-1.6 0-3-.7-3.4-1.6-.3-.9-.6-8.2-.6-16.2 0-15.7-1.2-26.8-3-28.6-.6-.6-5.3-1.3-10.3-1.4-8.1-.3-9.6-.1-11.7 1.6-2.4 2-2.5 2.4-2.5 15.5 0 7.5.3 13.9.8 14.3.4.4 2.6 1 5 1.3l4.2.6v14l-6.2.3c-5.5.3-6.4 0-7.7-2-.8-1.3-1.8-4.6-2.1-7.3-1.5-10.6-7.4-18.4-16.8-22-2.6-1-4.7-2.1-4.7-2.5 0-.5 1.3-1.3 2.8-1.8 12.6-4.4 17.5-22 10.3-36.7-5.4-11-14.3-16.5-26.7-16.5-7.2 0-9.8 1.2-17.6 8.1l-6.8 6.1v-4.1c0-3 .7-4.8 2.9-7.3 4.4-4.9 18.3-13 22.4-13 2.2 0 8.6 2.5 17.8 7 8 3.9 15.7 7.4 17.2 7.7 3.6.9 3.5.5-.7-23.1-3.4-18.7-3.4-18.9-1.6-21.9 4-6.4 17.3-17.5 20.9-17.5.9 0 2.3.4 3.1 1zm358.8 46.4c.8 1.7 2.2 2.7 4.7 3.2 3.9.7 4.1 1.1 2.1 5.1-.8 1.5-1.8 4.1-2.3 5.8-.8 2.9-1 3-6.8 3s-6-.1-6.2-2.8c-.1-1.5-1.1-4-2.2-5.6l-2.1-2.9 2.8-1.1c1.5-.6 3.6-2.5 4.7-4.1 2.4-3.6 3.8-3.8 5.3-.6zM81.7 254.2c1.3 1.2 2.8 3.8 3.4 5.9 2.3 7.5-2.7 15.1-14.9 22.5-4.2 2.6-10.1 6.7-13.1 9.1-6.3 5.1-7.1 4.6-6.5-3.6 2-24.5 20.1-44.2 31.1-33.9zm292.9 45.3c6.5 4.2 10 10.6 8.9 16.3-.9 5-8.8 12.7-14.7 14.3-8.3 2.2-15.6-2.7-17.2-11.6-.9-4.8 1-13.5 3.7-17.7 4.6-6.7 10.4-7.1 19.3-1.3zm-288.8.2c4.5 3.3 7.2 9.1 7.2 15.3 0 19-21 24.5-36.6 9.5-6.4-6.1-7-11.3-1.9-17.4 7.5-8.8 24.1-12.8 31.3-7.4zm361.2 26c0 5.5-4.3 14.1-7.3 14.9-4 1-8.7-2.1-8.7-5.8 0-2.7 10.8-12.8 13.6-12.8 2.1 0 2.4.5 2.4 3.7zm-225.7 27.8c2.5 2.5 4.4 3.5 6.6 3.5 3.5 0 3.8.6 1.4 3.2-.9 1-2.2 3.9-2.8 6.5l-1.3 4.8-4.1-.3c-2.7-.2-5.1.2-6.6 1.2-3.3 2.2-3.4 2.1-2.4-2.2.7-3 .5-4.2-1.1-6.4-2.1-2.9-2.6-4.8-1.1-4.8 1.9 0 7.1-5.2 7.1-7.1 0-2.5.2-2.5 4.3 1.6z" class="aHMKogMa_0"></path><style>.aHMKogMa_0{stroke-dasharray:6826 6828;stroke-dashoffset:6827;animation:aHMKogMa_draw_0 2300ms ease 0ms infinite,aHMKogMa_fade 2300ms linear 0ms infinite;}@keyframes aHMKogMa_draw{100%{stroke-dashoffset:0;}}@keyframes aHMKogMa_fade{0%{stroke-opacity:1;}82.6086956521739%{stroke-opacity:1;}100%{stroke-opacity:0;}}@keyframes aHMKogMa_draw_0{34.78260869565217%{stroke-dashoffset: 6827}78.26086956521739%{ stroke-dashoffset: 0;}100%{ stroke-dashoffset: 0;}}</style></svg>