<svg version="1" xmlns="http://www.w3.org/2000/svg" width="300" height="300" viewBox="0 0 225.000000 225.000000" style=""><path d="M78.1 10.9c-1.7 4.5-3.4 10.1-3.7 12.5-.6 3.9-.3 4.8 1.9 7 3.1 3.1 6.5 3.3 10.1.5 3.4-2.7 3.4-6.9.1-17-4.2-12.5-4.7-12.7-8.4-3zM142 4.9c-2.4 4.7-6 16.5-6 20.2 0 4.3 3.5 7.9 7.7 7.9 3.2 0 7.3-4.2 7.3-7.5 0-2.8-4.2-16.1-6.4-20.3l-1.3-2.6-1.3 2.3zM55.3 25.7c-4.4 11.2-5 16.1-2.3 19.6 4.4 5.6 13 2.4 13-4.8 0-3.8-3-13.7-5.9-19.3l-1.7-3.4-3.1 7.9zM110.3 22.6c-2.8 6.6-5.3 15.2-5.3 18.4 0 3.5 3.8 7 7.6 7 3.9 0 7.4-3.6 7.4-7.6 0-3.2-3.7-15.1-6.2-19.9l-1.5-2.7-2 4.8zM163.1 25.5c-1.8 4.3-3.5 10.1-3.8 13-.5 4.4-.2 5.6 1.6 7.4 3.1 3.1 8.4 2.8 11-.5 1.2-1.5 2.1-3.8 2.1-5.1 0-2.6-4.2-16-6.4-20.1-1.3-2.4-1.4-2.3-4.5 5.3z" class="cvayJuDd_0"></path><path d="M75.2 42.2c-.8.8-1.2 5.9-1.2 17.9v16.6l-3.1.7c-1.7.3-3.5.6-4 .6s-.9-4.4-.9-9.8c0-6.3-.4-10.2-1.2-11-1.5-1.5-9.2-1.6-11.9-.2-1.7 1-1.9 2.3-1.9 14.9 0 13.5 0 13.8-2.6 16.2-3.6 3.4-4.7 5.7-5.4 11.2l-.5 4.8-7.5 3.2c-9.7 4.2-16.3 8.8-19.5 13.5-2.4 3.6-2.5 4.1-2.5 21.9 0 10.1.1 18.3.3 18.3.1 0 3.1-.9 6.5-2 3.5-1.1 8-2 9.9-2 5 0 8.8 4.4 10.3 11.8 2.3 11.1 1.9 10.7 7 6.5 6.2-5 12.4-7.6 16-6.8 3.9.9 8.1 5.9 11 13.1 1.3 3.2 2.5 6.1 2.6 6.3.2.2 2.7-2.2 5.5-5.3 5.5-6.1 9.4-8.6 13.1-8.6 4.1 0 8.8 3.8 13 10.5 2.2 3.6 4.3 6.4 4.5 6.2.2-.3 2.3-3.3 4.6-6.8 8.2-12.2 13.9-12.8 24.7-2.3l6.7 6.5 2.2-6.1c2.6-6.9 5.9-11.2 10-13 4-1.6 8.4-.1 16 5.5 6.6 4.9 6.3 5 7.6-3.5 1.4-9.1 6.5-15 12.7-15 1.3 0 5 1.2 8.3 2.5 3.3 1.4 6.1 2.5 6.3 2.5.1 0 .2-8.3.2-18.5V124l-4-4.4c-3.7-4-12.4-9.1-22.2-13-3.7-1.5-3.8-1.6-3.8-6.9 0-4.4-.5-6-3.1-9.5-1.7-2.3-3.5-4.2-4-4.2s-.9-6.1-.9-13.8c0-9.4-.4-14.2-1.2-15-1.6-1.6-11-1.6-12.6 0-.8.8-1.2 4.7-1.2 11.1v9.9l-3.1-.6c-1.7-.3-3.5-.6-4-.6s-.9-7.6-.9-16.9c0-13.3-.3-17.1-1.4-18-.9-.7-3.8-1.1-7.3-.9l-5.8.3-.3 16.4-.3 16.3-3.1-.6c-1.7-.3-5.2-.6-7.9-.6H120v-7.3c0-4.3-.5-7.8-1.2-8.5-1.6-1.6-11-1.6-12.6 0-.7.7-1.2 4.2-1.2 8.5V73h-4.9c-2.7 0-6.2.3-7.9.6l-3.1.6-.3-16.3-.3-16.4-6-.3c-3.8-.2-6.5.2-7.3 1zM105 89.8c0 6.3.4 10.2 1.2 11 1.6 1.6 11 1.6 12.6 0 .8-.8 1.2-4.7 1.2-11V80l2.8.1c1.5 0 5 .4 7.7.7l5 .7.5 6 .5 6 6.4.3c7.3.3 8.1-.2 8.1-6.2 0-3.1.3-3.7 1.6-3.2.9.3 2.6.9 3.9 1.2 1.9.5 2.5 1.4 2.7 4.2l.3 3.7 6.9.5c3.8.3 7.1 1 7.3 1.6 1.3 3.9-16.1 11-34.5 14-13.5 2.3-40.5 2.2-53.7-.1-19-3.3-34.5-9.6-34.5-14 0-1 1.9-1.5 7.3-1.7l7.2-.3.3-3.6c.3-3.3.7-3.7 4.3-4.8 3.4-1 4.2-1 5.5.4 1.2 1.1 3.1 1.5 6.7 1.3 4.3-.3 5.3-.7 6.4-2.8 1.2-2.5 4.4-3.4 13.1-3.8l3.2-.2v9.8zm-54.5 30.7c12.7 7.6 39.6 13.5 61.9 13.5 24.3 0 51.1-6.4 65.8-15.7 2.6-1.7 2.9-1.6 8.9 1.2 7.9 3.8 13.9 8.1 13.9 10 0 3.8-16.4 11.8-33 16.1-16.8 4.2-34.5 5.7-62 5.1-33.2-.7-49-3.4-68.2-11.7-8.9-3.8-13.8-7.2-13.8-9.5 0-.7.9-2 1.9-2.9 2.3-2.1 16.1-9.5 17.7-9.6.6 0 3.7 1.6 6.9 3.5z" class="cvayJuDd_1"></path><path d="M19.3 172.2l-6.3 3v8.9c0 6 .5 10 1.5 11.8 3.6 7.1 14.5 13.2 33 18.6 40.3 11.7 99.6 10.7 136.9-2.2 11-3.8 17.5-7.1 21.9-11.2 4.8-4.3 5.7-7.2 5.7-17.1v-9.1l-5.2-2.4c-8.9-4-9-3.9-10.4 3.7-3.3 17.4-11 20.4-25.1 9.7-2.9-2.1-5.6-3.9-6-3.9-.5 0-1.9 2.7-3.2 6.1-3 7.7-7.2 12.6-11.6 13.5-4.3.8-6.7-.5-14.2-7.9-3.4-3.4-6.4-5.9-6.6-5.6-.2.2-2 2.9-3.9 5.9-4.6 7.2-7.7 10-11.9 10.6-4.8.7-8.9-2.2-14-9.8-2.3-3.5-4.4-6.5-4.6-6.7-.2-.3-3.2 2.2-6.6 5.6-7.5 7.4-9.9 8.7-14.2 7.9-4.4-.9-8.5-5.7-11.4-13.4-1.3-3.4-2.8-6.2-3.4-6.2-.5 0-2.8 1.5-5.1 3.4-5.6 4.5-9.9 6.6-13.8 6.6-6.6 0-10.1-4.6-12.1-15.7-.7-3.7-1.6-6.7-2.2-6.9-.5-.1-3.8 1.1-7.2 2.8z" class="cvayJuDd_2"></path><style>.cvayJuDd_0{stroke-dasharray:354 356;stroke-dashoffset:355;animation:cvayJuDd_draw_0 7200ms linear 0ms infinite,cvayJuDd_fade 7200ms linear 0ms infinite;}.cvayJuDd_1{stroke-dasharray:1553 1555;stroke-dashoffset:1554;animation:cvayJuDd_draw_1 7200ms linear 0ms infinite,cvayJuDd_fade 7200ms linear 0ms infinite;}.cvayJuDd_2{stroke-dasharray:534 536;stroke-dashoffset:535;animation:cvayJuDd_draw_2 7200ms linear 0ms infinite,cvayJuDd_fade 7200ms linear 0ms infinite;}@keyframes cvayJuDd_draw{100%{stroke-dashoffset:0;}}@keyframes cvayJuDd_fade{0%{stroke-opacity:1;}94.44444444444444%{stroke-opacity:1;}100%{stroke-opacity:0;}}@keyframes cvayJuDd_draw_0{11.11111111111111%{stroke-dashoffset: 355}17.16334788143299%{ stroke-dashoffset: 0;}100%{ stroke-dashoffset: 0;}}@keyframes cvayJuDd_draw_1{17.16334788143299%{stroke-dashoffset: 1554}43.65680123658847%{ stroke-dashoffset: 0;}100%{ stroke-dashoffset: 0;}}@keyframes cvayJuDd_draw_2{43.656801236588464%{stroke-dashoffset: 535}52.77777777777777%{ stroke-dashoffset: 0;}100%{ stroke-dashoffset: 0;}}</style></svg>